<?xml version="1.0" encoding="UTF-8"?>
<svg id="Layer_2" xmlns="http://www.w3.org/2000/svg" viewBox="0 0 732.99 714.8" stroke="#c27aff50" fill="#c27aff50">
  <g id="Layer_1-2" data-name="Layer_1">
    <g>
      <path d="M252.39,656.01c.31,2.46,1.78,4.27,3.5,5.87,1.28,1.2,2.73,2.22,4.08,3.3.06,3.11-1.1,4.4-3.96,4.47-1.96.04-3.93.18-5.89.09-1.44-.07-2.85-.48-4.29-.68-4.45-.63-8.87-1.3-13.16-2.78-8.27-2.85-16.62-5.49-24.91-8.29-1.65-.56-3.23-1.39-4.78-2.21-1.87-.99-3.69-2.1-5.52-3.18-1.44-.85-2.86-1.74-4.31-2.58-.37-.22-.82-.3-1.49-.55.06.78-.1,1.44.17,1.78,1.62,2.14,3.29,4.24,5.05,6.28.9,1.05,2.12,1.83,2.99,2.9.73.9,1.41,1.99,1.65,3.09.33,1.54-1.3,2.8-2.39,1.83-2.01-1.79-4.09-.77-6.09-.67-1.9.09-3.65,0-5.49-.59-2.11-.68-4.35-.96-6.54-1.31-3.55-.57-6.99-1.3-10.35-2.81-3.54-1.6-7.01-3.26-10.35-5.23-3.99-2.36-8.07-4.55-12.05-6.91-2.36-1.4-4.61-3-7.32-4.79,1.07,3.66,1.95,6.92,3.01,10.13.27.82,1.11,1.46,1.71,2.16.72.84,1.48,1.65,2.18,2.5.82.99.52,1.93-.28,2.75-.77.79-1.72.86-2.52.15-1.74-1.54-3.47-3.12-5.06-4.81-1.14-1.21-2.02-2.66-3.1-3.94-.4-.48-1.02-1.03-1.57-1.08-3.54-.29-5.77-2.83-8.22-4.84-2.65-2.17-4.9-4.84-7.47-7.13-2.19-1.95-4.62-3.64-6.88-5.52-2.58-2.15-5.2-4.28-7.61-6.61-2.4-2.32-4.34-5.16-6.89-7.28-2.21-1.84-4-3.95-5.4-6.3-3.34-5.61-7.76-10.43-11.19-15.96-2.98-4.79-6.24-9.42-8.12-14.82-.27-.77-.77-1.5-1.29-2.15-3-3.73-5.27-7.86-6.85-12.38-2.5-7.11-5.01-14.21-7.54-21.31-.15-.41-.44-.76-1.03-1.76-.22,1.43-.52,2.23-.42,2.98.29,2.04.67,4.07,1.15,6.06.61,2.52,2.19,4.81,1.67,7.58,1.63,2.14,1.05,4.86,1.87,7.22.21.61.46,1.31.36,1.91-.11.64-.47,1.42-.98,1.77-.61.42-1.27.19-1.9-.53-4.45-5.12-5.97-8.21-7.46-14.84-.98-4.38-1.87-8.77-2.9-13.14-.32-1.35-.96-2.63-1.47-3.93-1.21-3.11-2.54-6.18-3.61-9.34-.56-1.65-.6-3.48-1.03-5.19-1.03-4.06-2.27-8.08-3.22-12.16-1.27-5.46-2.16-10.98-2.52-16.59-.44-6.78-1.23-13.54-1.78-20.31-.51-6.22-.88-12.46-1.38-18.68-.3-3.72-.79-7.42-1.09-11.14-.27-3.26-.57-6.53-.54-9.79.06-7.21-.14-14.38-.86-21.57-.55-5.55-.24-11.16.68-16.73.5-3,.25-6.13.41-9.19.35-6.62.74-13.24,1.11-19.86.24-4.19.46-8.37.73-12.56.08-1.3.36-2.59.47-3.89.74-8.38,2.04-16.68,3.85-24.89.78-3.52,2.18-6.9,3.28-10.35.22-.7.47-1.44.46-2.16-.11-4.75-.71-9.54-.33-14.25.37-4.54-.64-8.93-.49-13.39.11-3.29.65-6.52,2.36-9.43.14-.24.46-.47.45-.69-.03-.51-.22-1.01-.34-1.51-.54.21-1.38.28-1.57.67-.73,1.49-1.42,3.04-1.81,4.65-1.1,4.48-3.11,8.56-5.18,12.64-.84,1.65-1.47,3.42-2.12,5.16-.46,1.21-.81,2.46-1.19,3.7-1.55,5.08-3.08,10.17-4.65,15.24-.81,2.62-1.21,5.27-1.08,8.01.04.83-.07,1.7-.28,2.51-.36,1.39-1.51,1.62-2.47.55-1.31-1.46-2.16-3.03-1.36-5.08.2-.5.43-1.27.2-1.62-1.65-2.58-.45-5.45-.96-8.14-.52-2.74-.98-5.53-1.11-8.31-.16-3.26.05-6.53.14-9.8.04-1.45.1-2.92.32-4.35.34-2.2.45-4.44,1.71-6.44.83-1.32,1.09-2.84,1.03-4.49-.11-3.3.67-6.4,1.97-9.51,1.68-4.03,2.97-8.27,4-12.52.86-3.56,1.75-7.02,3.53-10.27,1.38-2.51,2.35-5.23,2.59-8.18.09-1.07.72-2.1,1.1-3.15,1.54-4.16,3.08-8.31,4.74-12.79-2.21-.42-4-.77-5.79-1.11-3.68-.69-7.25-4.19-7.71-7.91-.31-2.5-.17-5.04-.31-7.56-.22-3.95.7-7.73,1.55-11.53.51-2.26,1.11-4.52,1.42-6.81.36-2.62,1.92-4.75,2.65-7.21.52-1.77,1.36-3.42,1.34-5.36-.01-1.12-.46-1.75-1.37-2.2-.91-.46-1.82-.93-2.75-1.38-7.5-3.58-11.36-10.26-14.77-17.33-.64-1.33-1.47-2.58-2.03-3.94-1.97-4.81-2.35-9.97-3.13-15.04-.24-1.59-.57-3.03-1.6-4.39-1.62-2.13-3-4.46-4.35-6.77-.55-.95-1.12-2.11-1.09-3.15.15-4.45-2.27-8.4-2.27-12.82,0-3.35-.29-6.7-.45-10.04-.06-1.2-.23-2.4-.16-3.58.09-1.76.24-3.53.56-5.26.91-4.95,1.85-9.91,2.92-14.83.35-1.6,1.18-3.1,1.72-4.66,1.06-3.06,2.14-6.12,3.07-9.23.69-2.31.87-4.8,1.81-6.99.74-1.73,2.22-3.16,3.47-4.64,1.85-2.17,1.85-2.99-.3-4.8-.42-.36-.92-.64-1.4-.92-4.66-2.64-6.81-7.02-8.29-11.88-.08-.26-.14-.57-.08-.83,1.09-4.74-.44-9.68,1.14-14.39.31-.93.16-2.04.13-3.06-.1-2.78,1.05-5.1,2.63-7.23,1.01-1.36,2.5-1.61,3.99-.76,1.69.97,2.79,2.41,3.36,4.31.88,2.94,1.69,5.92,2.87,8.75.76,1.85,2.01,3.53,3.23,5.14,1.24,1.63,2.75,3.06,4.08,4.62,2.12,2.49,3.74,2.76,6.8.74,2.75-1.81,5.04-4.08,6.52-7.09,1.08-2.21,3.01-3.48,5.12-4.55,1.56-.79,3.05-1.63,4.26-3.01,1.82-2.09,4.47-2.94,6.93-3.99,2.74-1.17,5.5-2.18,8.58-2.34,1.8-.09,3.55-1.02,5.33-1.53.33-.1.71-.01,1.05-.01.42,2.86-.05,4.12-2.24,5.16-1.91.91-3.9,1.76-5.95,2.26-4.82,1.18-9.19,3.02-12.61,6.8-.7.78-1.82,1.23-2.82,1.68-1.56.71-2.94,1.46-3.8,3.11-.85,1.64-1.93,3.19-3.1,4.63-1.81,2.23-4.43,3.36-6.99,4.44-.92.39-1.47.86-2.03,1.68-1.82,2.69-3.85,5.25-5.73,7.9-3.13,4.41-6.27,8.82-9.28,13.31-.64.96-.9,2.27-1.05,3.45-.53,4.35-2.23,8.25-4.27,12.07-.51.95-.99,2.13-.89,3.15.25,2.62-.62,4.95-1.35,7.36-.34,1.13-.42,2.34-.52,3.53-.18,2.13-.08,4.31-.44,6.4-.9,5.23-.64,10.4.34,15.58.09.46.34.93.29,1.37-.45,3.65.86,7.04,1.71,10.45.55,2.19,1.78,4.28,3.04,6.19,1.16,1.77,2.64,3.39,4.22,4.8,1.14,1.01,1.4,1.94.78,3.17-1.23,2.42-.82,4.91-.45,7.41.69,4.64,3.08,8.56,5.31,12.55.73,1.3,1.67,2.49,2.28,3.84.8,1.77,1.98,3.12,3.61,4.15,3.52,2.23,6.61,5.32,11.11,5.61,3.26,2.09,7.38,2.46,10.19,5.6,2.19,2.44,5.39,2.66,8.55,2.1.37-.06.73-.26,1.09-.24,4.08.2,8.16.51,12.24.59,1.01.02,2.19-.45,3.02-1.06,1.71-1.25,3.37-2.63,4.82-4.17,1.9-2.02,3.58-4.26,5.38-6.39.77-.91,1.64-1.74,2.41-2.64,1.13-1.33,2.24-2.68,3.33-4.05,2.2-2.76,4.34-5.56,6.56-8.29,3.23-3.96,6.53-7.88,9.78-11.83.39-.47.66-1.04,1.1-1.74-2.58-.62-4.04,2.76-6.51,1.26-.87-2.47-.8-2.99,1.33-3.9,2.79-1.2,5.61-2.68,8.81-1.03,1.34-1.8,2.6-3.52,3.89-5.22.5-.66,1-1.36,1.65-1.86,2.93-2.3,4.7-5.55,6.89-8.44,2.01-2.64,4-5.28,5.56-8.25,1.07-2.03,2.68-3.84,4.3-5.5,2.47-2.56,4.69-5.27,6.53-8.31.19-.32.38-.68.66-.9,4-3.25,6.46-7.66,9.18-11.91,3.2-5,6.46-9.98,10.43-14.44.11-.13.12-.34.24-.7-2.76-1.45-2.52-3.97-2.03-6.52.51-2.65,1.2-5.27,1.6-7.94.34-2.3.54-4.65.48-6.98-.03-1.12-.8-2.21-1.24-3.34-1.45.08-2.63.15-3.74.21-.96-1.04-.39-1.8.15-2.6,1.33-1.97,1.3-2.84-.1-4.73-1.27-1.72-2.51-3.48-3.81-5.17-.56-.72-1.23-1.37-1.91-1.99-1.51-1.39-3.03-2.75-4.59-4.08-.55-.47-1.23-1.17-1.82-1.15-1.82.09-2.95-.98-4.17-2.01-2.87-2.42-5.91-4.49-9.4-6.01-2.69-1.17-5.06-3.03-7.64-4.46-3.37-1.87-7.12-2.15-10.86-2.3-.49-.02-1.05.36-1.48.68-3.06,2.36-6.63,2.88-10.33,2.86-.73,0-1.58-.12-2.14-.52-.51-.37-.94-1.19-.95-1.81,0-.43.69-1.13,1.2-1.27,1.58-.44,3.22-.67,5.53-1.11-1.06-.55-1.6-1.05-2.19-1.11-5.13-.51-10.28-.6-15.38.11-1.69.23-3.36,1.07-4.87,1.92-1.26.7-2.37,1.36-3.91,1.12-.67-.11-1.42.29-2.13.44-1.24.24-2.04-.22-2.26-1.44-.16-.9-.36-1.87-.15-2.72.13-.55.93-1.27,1.48-1.33,3.95-.4,7.6-1.75,11.25-3.18,1.27-.5,2.89-.37,3.97-1.08,3.23-2.13,6.69-1.09,10.08-1.2,4.5-.14,8.6,1.57,12.88,2.48,2.54.54,5.13.83,7.72,1.11,3.63.39,6.29,2.7,9.16,4.54,4.71,3.03,9.03,6.6,13.05,10.5.71.69,1.43.73,2.3.34,1.28-.58,2.34-.1,3.33.77,2.87,2.54,5.79,5.04,8.61,7.63.66.61,1.01,1.55,1.55,2.29,1.19,1.63,2.41,3.24,3.54,4.75.67-.18,1.02-.17,1.19-.34,3.98-3.68,9.07-4.68,14.1-5.57,2.05-.37,4.26.17,6.4.3,2.42.15,4.84.27,7.26.46,1.3.1,2.62.19,3.88.52,5.55,1.44,7.46,4.66,5.52,10.92-1.01,3.27-2.61,6.36-3.09,9.81-.05.36-.04.73-.06,1.12,1.01.67,1.83.13,2.64-.26,3.01-1.46,6.09-2.78,8.64-5.04.46-.4,1.13-.6,1.74-.78,3.4-1.03,6.51-2.66,9.55-4.44,3.44-2.01,6.78-4.28,10.41-5.85,5.94-2.57,12.23-3.98,18.75-4.29,2.6-.12,5.17-.69,7.76-.9,4.06-.33,8.06-1.2,12.22-.83,2.55.23,5.18-.54,7.79-.77,3.33-.29,6.67-.67,10.01-.67,2,0,3.98.79,6,.95,3.89.32,7.8.46,11.7.64,1.41.06,2.67.47,4.01.92,2.5.85,5,1.88,7.86,1.38,3.78-.65,7.57-.72,11.42.06,2.22.45,4.64-.1,6.97-.17,2.23-.06,4.42-.02,6.54.91.89.39,2.02.33,3.04.31,2.08-.04,4.03.32,6.05.87,2.49.68,5.16.71,7.74,1.09,6.34.95,12.8,1.07,18.97,3.12,2.28.76,4.75.94,7.13,1.39.64.12,1.29.2,1.91.39,6.96,2.11,13.93,4.19,20.86,6.4,2.65.85,5.22,1.96,7.8,3.04,1.78.74,3.91,4.18,3.81,5.83-.08,1.28-.72,2-1.96,1.77-1.25-.23-2.48-.66-3.64-1.19-1.51-.68-2.92-1.56-4.39-2.34-4.84-2.56-10.4-2.75-15.45-4.62-5.12-1.9-10.5-2.61-15.78-3.76-2.26-.5-4.42-1.51-6.7-1.93-4.01-.73-8.08-1.13-12.11-1.77-3.68-.58-7.33-1.33-11-1.93-3.19-.52-6.4-.92-9.6-1.4-1.54-.23-3.05-.67-4.59-.78-1.19-.09-2.41.39-3.59.28-2.58-.24-5.15-.69-7.72-1.04-.52-.07-1.05-.11-1.58-.13-1.39-.04-2.98.35-4.14-.18-2.6-1.2-5.27-1.28-7.88-.79-3.81.71-7.6.46-11.4.36-2.49-.06-5.03,0-7.46-.47-2.75-.54-5.46-.72-8.22-.51-2.68.2-5.37.3-8.02.72-4.04.65-8.07,1.04-12.16,1-.37,0-.78,0-1.11.14-3.35,1.47-6.9,1.07-10.4,1.22-.83.04-1.64.31-2.47.41-1.01.12-2.02.17-3.03.27-1.46.14-3.05-.03-4.36.49-2.51,1-4.99,1.9-7.68,2.32-1.24.19-2.62.76-3.51,1.6-2.45,2.32-5.61,3.24-8.44,4.81-3.11,1.73-6.26,3.25-9.72,4.23-1.55.44-2.79,1.87-4.29,2.59-2.59,1.26-5.28,2.33-7.93,3.46-2.03.86-4.28,1.41-6.06,2.64-1.46,1.01-2.52,2.72-3.5,4.28-2.12,3.39-4,6.94-6.11,10.34-1.62,2.6-3.39,5.11-5.19,7.59-1.74,2.4-3.61,4.7-5.43,7.05-.63.81-1.26,1.61-1.91,2.41-1.52,1.88-3.05,3.75-4.57,5.63-2.11,2.6-4.26,5.18-6.33,7.81-2.3,2.92-4.49,5.93-6.79,8.84-1.91,2.41-3.95,4.71-5.86,7.12-1.86,2.34-3.57,4.8-5.47,7.1-1,1.22-2.27,2.21-3.39,3.33-3.3,3.3-6.09,7-8.77,10.81-1.05,1.49-2.6,2.67-4.04,3.84-2.76,2.22-5.72,4.22-8.39,6.54-1.46,1.27-2.48,3.02-3.72,4.54-3.29,4.04-6.52,8.12-9.89,12.08-2.94,3.45-6.09,6.73-9.06,10.17-1.46,1.69-2.56,3.7-4.11,5.28-2.47,2.52-4.86,5.1-7.1,7.83-1.21,1.48-2.91,2.65-4.58,3.63-4.13,2.43-7.36,5.73-9.89,9.73-1.53,2.41-3.57,4.27-5.73,6.02-2.81,2.27-5.66,4.51-8.55,6.68-1.7,1.28-3.51,2.39-5.25,3.61-.37.26-.79.6-.94.99-1.2,3.13-2.21,6.33-3.51,9.4-2.15,5.07-2.9,10.57-5.34,15.59-1.68,3.47-2.21,7.49-3.33,11.25-.53,1.77-1.22,3.49-1.83,5.24-.21.61-.4,1.23-.58,1.85-.95,3.4-1.9,6.81-2.85,10.22-.45,1.61-1.26,3.15-.75,4.91.05.17.04.41-.05.55-1.36,2.02-1.09,4.44-1.64,6.65-1.19,4.75-1.27,9.59-1.15,14.45,0,.14.2.28.4.54.97-.22,1.47-.7,1.56-1.85.07-.95.49-1.9.87-2.8.81-1.96,1.85-3.84,2.46-5.85.27-.88.4-1.46,1.32-1.79.35-.12.78-.78.72-1.12-.46-2.69,1.75-4.52,2.14-6.94.15-.96.91-1.81,1.29-2.74.55-1.34.86-2.8,1.52-4.08,1.45-2.79,3.02-5.51,4.61-8.22,2.07-3.53,4.27-6.92,5.26-11.04.53-2.21.37-4.7,1.93-6.66.17-.21-.02-.7,0-1.05.06-1-.06-2.07.27-2.98,1.32-3.69,2.78-7.33,4.2-10.98.97-2.48,2.76-3.55,5.39-3.56,1.15,0,2.31-.44,3.51-.7,1.76,1.57,1.96,2.03,1.17,3.96-1.62,3.97-3.36,7.89-4.94,11.87-1.24,3.11-2.31,6.3-3.48,9.44-.8,2.15-1.94,4.21-2.44,6.42-1.06,4.7-3,9.2-3.15,14.13-.07,2.23-.52,4.46-.99,6.65-.46,2.16-.28,4.24-.02,6.4.28,2.3.36,4.67.16,6.97-.08.87-1.19,1.65-2.16,2.89-.43,4.12.57,8.69,1.17,13.3.17,1.29.16,2.6.24,3.9.23,3.98.47,7.96.69,11.95.08,1.54-.03,3.11.2,4.63.41,2.75,1.05,5.46,1.53,8.2.24,1.37.27,2.79.55,4.15.84,4.07,1.4,8.21,2.96,12.12.72,1.8,1.14,3.71,1.81,5.54.14.38.74.6,1.58,1.23-.33-2.34-.47-4.15-.86-5.9-.59-2.66.5-5.16.58-7.75.11-3.62.18-7.28.84-10.82.27-1.46.19-2.71.14-4.1-.05-1.36.4-2.72.54-4.1.37-3.43.69-6.86,1.02-10.29.06-.65.07-1.31.14-1.96.75-7.14,1.51-14.28,2.26-21.42.33-3.07.55-6.15,1.03-9.19.26-1.63.9-3.22,1.53-4.75.89-2.16,1.7-4.28,1.9-6.68.14-1.66.9-3.26,1.49-5.26,1.55,1.49,1.33,2.93,1.19,4.21-.61,5.75-1.39,11.49-1.98,17.25-.69,6.69-.87,13.45-1.95,20.06-.97,5.95.41,11.73.22,17.58-.04,1.19-.18,2.38-.26,3.57-.04.55-.11,1.12-.06,1.67.67,7.98,1.06,15.96,3.08,23.82,1.35,5.26,2.94,10.53,3.36,16.06.21,2.73,1.34,5.38,2.06,8.07.62,2.34,1.23,4.68,1.87,7.01,1.11,4.12,2.09,8.29,3.4,12.35,1.85,5.77,3.94,11.47,5.95,17.19.31.88.82,1.68,1.19,2.54.81,1.88,1.73,3.72,2.35,5.66,1.15,3.61,2.64,6.39,5.09,8.52-.16-1.52-.02-2.73-.43-3.73-1.85-4.56-2.41-9.34-2.79-14.18-.2-2.6-.5-5.19-.62-7.79-.07-1.48.25-2.98.15-4.46-.14-2.03-.5-4.05-.79-6.08-.4-2.86-.87-5.71-1.18-8.57-.24-2.21-.22-4.45-.41-6.67-.28-3.15-.9-6.29-.89-9.43.01-2.48.02-4.92-.17-7.41-.26-3.41-.02-6.87-.04-10.3,0-1.12.09-2.1,1.44-2.31,1.11-.17,1.92.53,2.19,2.06.32,1.83.41,3.69.72,5.52.48,2.82-.35,5.73.91,8.54.48,1.07-.12,2.57.03,3.84.38,3.23,1.1,6.42,1.32,9.65.4,5.96,1.71,11.76,2.73,17.61.83,4.75,2.3,9.38,3.51,14.06.93,3.61,1.72,7.28,2.91,10.8,1.09,3.24,2.52,6.38,4.01,9.46,1.41,2.92,3.03,5.76,4.69,8.55.71,1.19,1.76,2.16,2.65,3.24,1.36,1.66,2.72,3.31,4.07,4.99.62.78,1.21,1.59,2.07,2.72.33-.82.66-1.23.6-1.58-.66-4.09-1.46-8.16-2.05-12.26-.28-1.93-.21-3.91-.28-5.87-.23-6.67-1.74-13.1-3.69-19.44-.27-.87-.55-1.87-.38-2.73.49-2.46-.21-4.81-.38-7.21-.03-.46-.37-1-.21-1.35,1.09-2.46-.18-4.66-.55-6.99-.41-2.55-.4-5.16-.48-7.75-.04-1.42.88-2.47,2.04-2.61,1.09-.13,2.13.78,2.24,2.36.14,2.13-.11,4.29.06,6.41.27,3.24.75,6.47,1.15,9.7.24,1.95.3,3.94.75,5.84.96,4.08,2.32,8.06,3.14,12.17,1.14,5.69,4.25,10.45,6.75,15.51,1.16,2.34,2.09,4.79,3.22,7.15.88,1.81,1.92,3.54,3,5.52,1.21-1.5.91-2.97.43-4.16-1.58-3.94-1.8-8.12-2.62-12.2-.54-2.7.07-5.63-1.46-8.13.69-2.63-1.49-4.67-1.42-7.24.07-2.48-.34-4.98-.61-7.46-.16-1.39-.51-2.75-.72-4.14-.19-1.28-.31-2.58-.43-3.87-.05-.55.06-1.13-.05-1.67-.56-2.92-1.28-5.82-1.73-8.76-.48-3.11-.74-6.26-1.05-9.39-.27-2.77-.88-5.54-.22-8.34-1.41-3.46-1.34-7.15-1.59-10.77-.25-3.61-.33-7.24-.47-10.85-.22-5.65-.48-11.29-.62-16.94-.07-2.75-.05-5.52.17-8.26.51-6.39,1.2-12.76,1.74-19.15.22-2.58.11-5.19.42-7.76.42-3.51,1.11-6.99,1.64-10.49.11-.73.04-1.49.02-2.24-.01-.46-.2-.94-.11-1.38.41-2.06.98-4.09,1.32-6.17.23-1.45.14-2.96.26-4.44.32-3.84.67-7.68,1.01-11.52.15-1.74.22-3.5.51-5.21.36-2.11.95-4.18,1.37-6.28.72-3.63,1.35-7.29,2.09-10.92.79-3.86,1.63-7.72,2.56-11.55.18-.72.78-1.62,1.41-1.9,1.78-.77,3.19.41,3.01,2.39-.07.74-.33,1.46-.49,2.19-1.15,5.18-1.67,10.5-3.71,15.48-.51,1.25-.45,2.75-.61,4.13-.39,3.41.04,6.91-1.21,10.22-.13.34.26.84.31,1.28.31,2.58.68,5.16.85,7.75.14,2.12.03,4.27.03,6.39,3.19,1.42,6.33,1.8,9.48,1.89,1.54.04,2.87-.62,3.55-2.24,1.27-3,2.53-6.01,3.97-8.93,2.26-4.58,4.4-9.22,7.29-13.48,1.03-1.51,1.68-3.27,2.55-4.89.78-1.44,1.7-2.82,2.45-4.28,1-1.95,1.04-4.37,2.87-5.93.07-.06.12-.17.12-.25-.18-2.96,2.12-4.8,3.3-7.12,1.27-2.48,2.9-4.78,4.31-7.19,1.02-1.75,1.92-3.57,2.94-5.32,1.26-2.16,2.54-4.31,3.88-6.42,2.39-3.75,5.4-7.06,7.24-11.21.82-1.85,2.58-3.29,3.7-5.13,1.63-2.67,3.88-4.96,5.59-7.59,1.77-2.73,3.25-5.65,4.78-8.52.66-1.23,1-2.65,1.75-3.82.44-.7,1.38-1.51,2.1-1.52,1.13-.01,1.27,1.25,1.24,2.17-.04,1.39-.11,2.81-.44,4.16-1.89,7.63-1.75,15.29-.72,23.03.57,4.24.57,8.56.89,12.83.17,2.32.42,4.63.72,6.94.69,5.28,1.41,10.55,2.16,15.82.38,2.68.83,5.35,1.3,8.01.76,4.3,1.68,8.58,2.33,12.9.44,2.94.43,5.95.78,8.91.33,2.87.83,5.72,1.32,8.57.08.47.5.88.96,1.65.33-.75.66-1.14.66-1.53.05-3.9,0-7.8.08-11.69.08-3.81.23-7.62.42-11.43.21-4.28.49-8.55.77-12.82.28-4.24.57-8.48.95-12.71.3-3.34.71-6.68,1.14-10.01.32-2.49.8-4.96,1.1-7.45.7-5.92,1.71-11.84,1.87-17.77.13-4.61,1.02-9.04,1.7-13.53.21-1.36.72-2.66,1.07-4,.33-1.25.63-2.51.93-3.77.45-1.88,1.09-2.35,3.34-2.18.29,4.19-1.49,8.15-1.63,12.31-.14,4.18-.69,8.36-1.09,12.53-.41,4.27-.8,8.53-1.27,12.79-.46,4.18-1.05,8.34-1.52,12.52-.46,4.1-.83,8.21-.8,12.46.23-.33.57-.63.68-1,1.83-6.37,3.47-12.81,5.5-19.12,1.04-3.23,2.81-6.21,4.12-9.37.99-2.39,1.46-5,3.68-6.78.54-.43.43-1.6.79-2.34,2.78-5.79,5.57-11.57,8.43-17.32.96-1.93,2.8-3.02,4.67-3.81,1.66-.7,3.3.15,3.13,2.23-.3,3.75-1.09,7.39-2.25,10.95-.58,1.77-1.36,3.44-.08,5.32.35.51-.05,1.61-.25,2.4-1.13,4.52-2.06,9.1-3.51,13.51-1.94,5.89-1.71,11.98-2.25,18.01-.32,3.62-.83,7.23-1.22,10.85-.23,2.21-.45,4.42-.57,6.63-.29,5.68-.58,11.36-.74,17.04-.05,1.73.31,3.47.46,5.21.42,4.93.92,9.86,1.2,14.81.2,3.54.07,7.09.12,10.64.01.93.02,1.89.22,2.79,1.05,4.82,2.21,9.62,3.24,14.44.86,4.08,1.51,8.21,2.4,12.28.55,2.54,1.26,5.07,2.08,7.54,1.98,5.94,4.06,11.84,6.1,17.76.97,2.8,1.92,5.61,2.95,8.39.25.69.75,1.29,1.15,1.92.35.55.96,1.04,1.07,1.63.66,3.76,3.73,6.16,5.22,9.49,1.43,3.2,3.63,6.05,5.5,9.05.1.16.25.28.47.53.31-1.93-.07-3.6-.57-5.35-.81-2.84-1.32-5.76-1.93-8.66-.34-1.64-.69-3.29-.91-4.95-.22-1.65-.21-3.33-.41-4.98-.68-5.55-1.42-11.09-2.12-16.64-.28-2.22-.57-4.45-.74-6.68-.33-4.28-.56-8.57-.86-12.86-.08-1.11-.3-2.2-.35-3.31-.16-3.61-.38-7.23-.37-10.84.02-5.41.12-10.83.36-16.24.2-4.64.67-9.27.95-13.91.23-3.69.35-7.38.55-11.06.04-.74.12-1.53.41-2.2,1.62-3.75,1.41-7.9,2.53-11.72,1.09-3.73,1-7.79,3.17-11.21.1-.15.25-.41.2-.5-1.41-2.46.81-4.4.98-6.65.16-2.2.98-4.34,1.48-6.52.41-1.82.71-3.66,1.2-5.46.29-1.04.97-1.97,1.29-3,.87-2.84,1.41-5.8,2.52-8.54,1.34-3.28,2.05-6.88,4.44-9.69.28-.33.53-.83.53-1.25.06-3.34,2.76-4.86,4.75-6.83.49-.48,1.66-.82,2.2-.56,1,.48,1.19,1.52.67,2.66-.39.84-.43,1.85-.86,2.66-2.68,5.06-3.47,10.61-4.28,16.15-.42,2.85-.79,5.7-1.08,8.56-.17,1.67-.06,3.36-.17,5.03-.48,7.02.56,13.97.93,20.95.13,2.41.56,4.8.87,7.2.53,4.15,1.01,8.3,1.64,12.43.71,4.71.9,9.64,2.53,14.03,1.96,5.28,3.14,10.9,6.23,15.81,1.6,2.55,2.28,5.68,3.41,8.53.31.77.72,1.51,1.16,2.21.7,1.1,1.61,2.07,2.2,3.22,2.67,5.25,5.83,10.15,9.53,14.76,2.84,3.53,5.14,7.5,7.84,11.15,2.27,3.06,4.72,5.99,7.18,8.9,2.52,2.99,5.16,5.89,7.81,8.9,1.66-1.96,3.39-3.64,5.87-4.66,2.36-.97,4.42-2.69,6.53-4.2,1.04-.74,1.46-1.7.99-3.17-1.22-3.8-1.98-7.76-3.34-11.5-1.44-3.97-2.23-8.06-3.03-12.17-.98-5.02-2.2-9.99-3.84-15.01-2.14.27-3.83,1.18-5.44,2.21-1.5.96-2.92,1.99-4.83,1.95-.43-.01-.94.22-1.28.49-1.9,1.5-3.72,3.1-5.64,4.58-1.25.96-2.57,1.83-3.92,2.64-.71.43-.76.33-2.17-.75.48-1.62,2.04-2.58,2.7-4.21.57-1.4,2.53-2.15,2.57-4.29h-2.3c1.27-2.09,3.19-2.94,4.87-4.05,1.2-.79,2.29-1.57,2.85-2.96.24-.58.64-1.19,1.13-1.57,2.81-2.16,5.64-4.28,8.51-6.34.77-.55,1.13-1.14,1.08-2.09-.22-4.28-.42-8.57-.59-12.85-.08-1.92.23-3.83-.68-5.72-.44-.92-.18-2.21-.12-3.32.28-4.8.71-9.6.85-14.4.07-2.39-.47-4.8-.5-7.2-.06-4-.1-8.01.19-11.99.19-2.62.37-5.19.07-7.82-.3-2.59-.36-5.21-.61-7.81-.24-2.52-.12-4.79,2.3-6.43.86-.58,1.25-1.83,1.95-2.7.38-.46,1.1-1.16,1.42-1.04.57.21,1.06.88,1.4,1.46.26.46.35,1.08.33,1.62-.07,2.04.18,4.21-.4,6.1-1.03,3.35-.5,6.69-.65,10.03-.27,6.16-.57,12.34-.49,18.5.06,4.66,1.48,9,4.68,12.61,4.58,5.18,8.56,10.8,12.1,16.75.38.64.73,1.31,1.18,1.91,1.27,1.69,1.81,1.94,3.81,1.17,6.11-2.35,12.52-2.9,18.96-3.43,5.12-.42,10.2-1.22,15.31-1.78,1.18-.13,2.39.03,3.58.04,2.03,0,4.07.04,6.1-.01,1.49-.04,2.98-.26,4.47-.25.9,0,1.82.23,2.71.45,1.59.39,3.17.85,5.12,1.38-.08-1.08.07-1.8-.2-2.26-2.34-3.88-3.15-8.32-4.63-12.51-.31-.88-.56-1.8-.99-2.62-.72-1.39-1.18-2.68-.32-4.24.3-.55.14-1.47-.06-2.15-1.22-4.11-2.55-8.19-3.75-12.3-.78-2.65-1.38-5.35-2.09-8.02-.22-.81-.63-1.57-.82-2.38-.61-2.62-1.23-5.24-1.71-7.89-.23-1.26.84-1.71,1.79-2.19,2.06.96,2.64,2.87,3.14,4.77.56,2.16.88,4.39,1.47,6.55.54,1.97,1.37,3.86,1.95,5.82,2.44,8.22,4.76,16.48,7.27,24.68,1.31,4.27,2.92,8.46,4.46,12.66.67,1.84,1.76,3.29,4,3.42.61.03,1.2.45,1.73.66.52,1.84-1.27,1.61-1.96,2.34,1.9.92,1.96.87,3.13-2.67,2.44-.32,4.44.44,5.96,2.53-1.65,3.38-5.25,2.13-7.98,3.29.84,3.13,1.63,6.17,2.48,9.2.37,1.32,1.14,2.44.93,4.01-.12.93.91,1.97,1.31,3.01,3.15,8.21,6.86,16.17,10.93,23.96,1.34,2.56,2.56,5.26,4.34,7.5,2.07,2.6,3.75,5.85,7.61,6.48.67.11,1.34.68,1.85,1.2,2.84,2.91,6.07,5.09,10.1,6.12,1.48.38,2.99,1.26,4.09,2.33.74.72,1.11,2.18,1.06,3.29-.16,3.33-.55,6.66-.97,9.97-.15,1.24.2,2.17.98,3.07,1.72,1.96,3.44,3.91,5.06,5.95.67.84,1.07,1.89,1.72,3.08.34-.5.71-.79.68-1.03-.28-2.36-.65-4.71-.96-7.07-.17-1.29-.3-2.58-.46-3.88-.39-3.09-.89-6.17-1.14-9.27-.25-3.07.08-6.22-.45-9.23-.89-5.11-.73-10.38-2.55-15.35-1.15-3.14-2.16-6.38-2.71-9.66-1.08-6.31-3.35-12.41-3.41-18.92-.01-1.1-.89-2.18-1.28-3.3-.85-2.45-1.75-4.89-2.44-7.38-.82-2.95-1.42-5.96-2.18-8.93-.77-2.97-1.63-5.92-2.44-8.89-.29-1.06-.52-2.13-.78-3.19-.08-.34-.07-.82-.29-1-1.66-1.28-1.74-3.2-2.22-5-.51-1.88-1.35-3.67-1.96-5.53-.55-1.68-.94-3.41-1.48-5.09-.65-2.03-1.38-4.04-2.06-6.07-.21-.62-.44-1.24-.55-1.88-.53-3.18-1.64-6.15-2.94-9.1-1-2.26-1.4-4.77-2.17-7.14-1.14-3.54-2.41-7.04-3.55-10.58-.45-1.41-.65-2.9-1.05-4.33-1.13-4.12-2.11-8.29-3.52-12.31-.75-2.14-2.18-4.09-3.49-5.99-1.14-1.65-.7-4.13,1.19-4.77.52-.18,1.59.14,1.88.58,2.35,3.57,4.92,6.97,6.17,11.21,1.46,4.91,3.42,9.67,5.06,14.52.87,2.56,1.5,5.2,2.31,7.78,1.64,5.24,3.32,10.47,4.99,15.7.45,1.42.93,2.82,1.4,4.23,2.05,6.19,4.08,12.38,6.15,18.57,1.12,3.35,2.44,6.64,3.4,10.04,1.13,4.01,1.92,8.12,2.94,12.16.45,1.79,1.11,3.52,1.65,5.28,1.09,3.56,2.2,7.11,3.21,10.68.33,1.16.32,2.41.6,3.58,1.43,5.95,2.02,12.09,4.04,17.9.18.53.24,1.09.38,1.64.9,3.59,1.81,7.19,2.71,10.78.13.53.24,1.09.25,1.64.08,3.73-.04,7.48.23,11.2.29,4,.89,7.98,1.44,11.95.41,2.95.93,5.89,1.47,8.83.16.88.56,1.71.78,2.58.22.88.6,1.83.47,2.68-.5,3.36,0,6.66.31,9.99.21,2.3.1,4.63.19,6.94.04.93.27,1.84.32,2.77.14,2.7.23,5.4.32,8.1.01.36,0,.81-.21,1.07-1.47,1.9-1.04,4.19-.89,6.2.44,5.91-.27,11.76-.51,17.63-.06,1.4-.16,2.8-.21,4.2-.04,1.1-.01,1.11,1.31,1.79,1.84-2.55,3.77-5.01,5.45-7.64,1.64-2.55,3-5.26,4.52-7.88.45-.78,1.03-1.5,1.52-2.26.25-.38.67-.8.65-1.18-.13-2.26.98-3.9,2.28-4.9-.08-1.4-.33-2.36-.15-3.23.44-2.22,1.08-4.39,1.63-6.59.2-.81.4-1.62.57-2.44.19-.91.25-1.86.54-2.74,1.81-5.51,3.62-11.01,4.65-16.73.15-.82.45-1.63.82-2.38.54-1.08,2-1.8,2.8-1.27.89.59,1.86,1.32,1.54,2.7-.87,3.72-1.96,7.41-2.52,11.18-.52,3.49-2.64,6.63-2.15,10.31.04.27-.03.56-.11.83-1.24,4.59-2.45,9.18-3.76,13.75-.87,3.04-1.53,6.21-2.91,9.02-1.91,3.9-4.04,7.76-7.5,10.63-.54.45-1,1.05-1.32,1.68-.78,1.56-1.46,3.18-2.17,4.78-.99,2.21-2.21,4.35-2.9,6.65-1.43,4.73-2.75,9.51-3.74,14.35-.48,2.33-.04,4.83-.94,7.16-.73,1.87-1.3,3.81-1.93,5.71.19.13.38.27.57.4,3.01-2.4,6.12-4.69,8.98-7.26,1.35-1.22,2.17-3.01,3.27-4.51,2.93-4.01,4.98-8.5,7.12-12.95,1.36-2.83,3-5.55,4.75-8.17.68-1.02,1.52-1.85,1.46-3.18-.01-.26.07-.6.23-.79,1.7-1.96,2.22-4.53,3.58-6.68,1.39-2.2,2.64-4.51,3.69-6.89.97-2.2,1.67-4.54,2.33-6.86.48-1.68.7-3.44,1.06-5.22h3.17c1.97,2.58,2.01,5.55.92,8.61-1.15,3.24-2.4,6.44-3.58,9.67-.18.49-.15,1.05-.25,1.77,1.42-.25,1.8-1.22,2.21-2.11.27-.59.37-1.28.71-1.82.74-1.18,2.03-1.2,2.64.06.59,1.21.86,2.57,1.37,4.16.37-.46.73-.74.84-1.09,1.88-5.56,3.68-11.15,5.66-16.67.29-.82,1.3-1.61,2.16-1.96,1.65-.66,2.52-1.7,2.94-3.41.3-1.21.53-2.61,1.9-3.26.15-.07.35-.27.35-.42.07-3.73,2.34-6.56,3.99-9.62,2.23-4.11,3.6-8.5,4.8-13,.56-2.12,1.4-4.18,2.36-6.21.77-1.64,1.3-3.52,2.19-5.2,1.38-2.61,2.96-5.14,4.12-7.84,1.32-3.07,2.49-6.23,3.32-9.46,1.07-4.14,1.68-8.39,2.6-12.58.63-2.89,1.45-5.74,2.18-8.6.37-1.45,1.23-2.04,2.81-1.5.78,1.61.77,3.32.57,5.12-.34,3.05-.53,6.12-.81,9.18-.13,1.38.23,2.4,1.69,2.8,2.36.66,3.94,2.57,4.8,4.46,1.18,2.6,3.17,4.54,4.51,6.98,3.24,5.92,5.18,12.07,5.05,18.89-.06,3.24.26,6.51.71,9.72.15,1.06,1.21,1.99,1.95,3.13-1.46.55-1.49,2.1-1.68,3.7-.42,3.41-.36,6.88-1.68,10.17-.5,1.23-.4,2.75-.37,4.13.05,2.21-.43,4.16-1.96,5.84-.4.44-.53,1.18-.69,1.8-.53,2.14-1.6,3.95-3.06,5.59-1.11,1.25-1.94,2.74-3.04,3.99-1.03,1.18-2.2,2.27-3.4,3.29-1.42,1.2-2.88,2.38-4.42,3.41-1.61,1.07-3.43,1.85-5.02,2.95-2.07,1.43-3.88,3.27-6.04,4.54-2.15,1.27-4.53,2.17-6.89,3.01-2.35.85-4.79,1.46-7.2,2.12-2.19.6-4.39,1.46-6.64.12-.45-.27-1.06-.26-1.93-.45-.13,2.54-.26,4.91-.38,7.28-.05.93-.07,1.86-.09,2.79-.06,2.49-.22,4.97-.17,7.46.09,4.36.29,8.72.45,13.08.03.74-.05,1.52.12,2.23,1.12,4.59,1.72,9.32,3.48,13.75,1.02,2.57,1.87,5.21,2.94,7.76.84,2.02.02,3.69-1.01,5.21-1,1.47-4.25.73-5.24-1.19-.72-1.4-1.28-2.9-1.74-4.41-1.28-4.18-2.61-8.36-3.67-12.6-.92-3.66-1.05-7.58-2.38-11.06-.96-2.51-1.5-5.07-2.07-7.82-1.32.41-1.57,1.38-1.93,2.16-1.66,3.52-3.19,7.11-4.93,10.59-.61,1.22-1.52,2.4-2.58,3.23-1.4,1.1-2.11,2.56-2.88,4.04-.56,1.06-.94,2.32-1.76,3.12-1.57,1.55-2.17,3.5-2.66,5.47-.74,2.97-2.09,5.46-4.55,7.32-.36.27-.69.67-.86,1.09-1.7,4.02-5.04,6.85-7.46,10.35-.73,1.06-1.76,1.93-2.71,2.82-1.2,1.14-2.54,2.14-3.67,3.33-2.64,2.81-5.23,5.67-7.77,8.57-.78.89-1.29,2.02-1.97,3.01-1.25,1.83-2.35,3.71-4.22,5.1-2.28,1.7-4.26,3.79-6.36,5.72-.2.19-.33.48-.56.61-4.43,2.67-7.48,6.93-11.53,10.02-2.45,1.87-4.91,3.7-7.34,5.59-1.1.85-2.03,1.97-3.21,2.65-3.55,2.04-7.23,3.85-10.78,5.89-3.5,2-6.92,4.16-10.37,6.26-2.62,1.6-5.17,3.3-7.84,4.82-1.42.81-2.99,1.4-4.54,1.93-2.28.78-4.61,1.41-7.08,2.15-.21,1.4-.36,2.69-.6,3.96-.89,4.68-.87,9.35-.43,14.1.52,5.67.65,11.34,2,16.93,1.36,5.62,2.16,11.36,3.32,17.03.76,3.73,1.06,7.62,3.13,10.99.19.3.27.7.29,1.07.14,2.4.02,4.83.43,7.18.44,2.53,1.28,5.01,2.09,7.46,1.73,5.22,3.52,10.42,5.35,15.61.37,1.05.83,2.19,1.58,2.95,2.39,2.39,3.05,5.67,4.52,8.5,1.7,3.28,2.75,6.93,3.78,10.5.39,1.35.12,3-.2,4.42-.41,1.78-2.08,1.87-3.86,2.22-1.21-2.31-2.47-4.56-3.6-6.87-2.01-4.1-3.99-8.21-5.91-12.35-.46-1-.56-2.16-.98-3.18-1.2-2.93-2.56-5.79-3.72-8.74-.99-2.51-1.95-5.05-2.62-7.66-1.32-5.1-2.4-10.27-3.66-15.39-.8-3.25-1.78-6.46-2.57-9.72-.44-1.8-.6-3.67-.95-5.5-.78-4.02-1.67-8.02-2.4-12.05-.69-3.85-1.35-7.72-1.82-11.6-.5-4.18-.76-8.38-1.1-12.57-.07-.83-.26-1.73-.03-2.49,1.16-3.83-.26-7.52-.14-11.66-.89.45-1.34.71-1.82.91-1.01.42-2.02.86-3.07,1.2-2.01.64-4.04,1.2-6.05,1.8-1.95.58-3.91,1.13-5.85,1.74-1.6.5-3.15,1.16-4.77,1.58-1.24.32-2.54.39-3.82.53-.46.05-1.07-.22-1.38,0-2.97,2.03-6.91.6-9.82,2.78-2.76-.3-4.95,1.77-7.75,1.76-2.17-.01-4.45.73-6.48,1.6-3.87,1.67-7.83,1.42-11.84,1.18-.46-.03-1.06-.39-1.34-.21-2.87,1.88-6.37,1.12-9.39,2.32-1,.39-2.03.65-1.99,1.98.05,1.4-.79,3.11,1.08,3.98,1.91.89,1.79,2.58,1.42,4.07-1.19,4.72-1.26,9.41-.28,14.16.28,1.36.26,2.79.42,4.18.27,2.29.68,4.57.85,6.87.13,1.75.14,3.54-.08,5.28-.74,6.03-1.84,12.02-2.35,18.07-.43,5.11-.16,10.27-.32,15.4-.14,4.74.57,9.49-.45,14.23-.47,2.17-.51,4.48-.4,6.7.11,2.2-.5,4.04-1.76,5.75-1.24,1.68-2.11,3.5-2.43,5.6-.23,1.49-.67,2.89-2.39,3.5-.65.23-1.1.98-1.68,1.45-1.4,1.14-3.19.69-3.4-1.04-.3-2.42-.98-4.77.75-7.24,1.2-1.71,1.37-4.21,1.74-6.41.57-3.3.95-6.64,1.34-9.97.25-2.12.45-4.25.54-6.39.19-4.76.24-9.53.48-14.29.12-2.33.53-4.64.85-6.95.6-4.41,1.58-8.79,1.74-13.21.2-5.27,1.05-10.56.12-15.84-.1-.55-.09-1.13-.24-1.67-1.83-6.26-1.96-12.68-2.13-19.14-.06-2.35-1-4.7-1.7-7-.27-.9-1.07-1.41-2.18-1.42-5.59-.06-11.17-.16-16.75-.31-1.49-.04-2.97-.43-4.46-.41-4.16.05-8.31.25-12.47.33-.72.01-1.45-.29-2.18-.41-4.12-.71-8.25-1.44-12.38-2.09-2.65-.41-5.33-.6-7.97-1.06-1.64-.29-3.25-.81-4.81-1.38-2.81-1.02-5.63-1.76-8.67-1.94-2.36-.14-4.66-1.06-7-1.6-2.17-.51-4.37-.89-6.52-1.48-3.86-1.08-7.74-2.14-11.51-3.47-2.17-.77-4.26-1.89-6.2-3.14-4.28-2.78-9.2-3.94-13.85-5.77-1.48-.58-2.94-1.21-4.45-1.7-1.65-.54-3.36-.93-5.03-1.4-.62-.17-1.39-.21-1.81-.6-2.51-2.35-5.83-2.74-8.88-3.76-6.39-2.13-12.51-4.79-18.3-8.27-2.93-1.76-6.17-3-9.2-4.61-4.01-2.14-7.96-4.41-11.92-6.63-.81-.46-1.59-.99-2.42-1.41-5.48-2.78-10.94-5.59-15.97-9.19-2.02-1.45-4.44-2.33-6.53-3.7-2.71-1.78-5.28-3.76-7.88-5.69-2.01-1.49-4.03-2.97-5.94-4.57-2.22-1.86-4.48-3.7-6.44-5.81-3.17-3.41-6.03-7.09-9.16-10.53-1.39-1.52-2.82-2.95-3.68-4.86-.39-.86-.87-1.63-.05-2.56.72-.81.46-1.69-.03-2.59-2.59-4.78-3.28-9.88-2.41-15.22.09-.54.19-1.15.03-1.64-.64-2-.15-3.83.44-5.75,1.5-4.89,2.76-9.85,4.28-14.73.72-2.3,1.65-4.58,2.79-6.7,1.85-3.48,2.2-7.31,2.97-11.05.08-.41,0-1.01-.24-1.31-1.3-1.57-2.7-3.06-4.04-4.59-.66-.76-1.67-1.48-1.83-2.35-.34-1.78-1.54-2.95-2.31-4.41-.76-1.44-.98-3.15-1.58-4.68-.78-1.98-1.69-3.91-2.58-5.85-.23-.51-.76-.95-.81-1.46-.56-4.98-4.04-8.89-4.86-13.84-.59-3.52-2.21-6.87-3.43-10.28-.58-1.63-1.03-3.27-1.91-4.86-.94-1.69-.87-3.97-1.12-6-.31-2.51-.78-4.92-1.87-7.25-.57-1.23-.78-2.7-.85-4.08-.23-4.68-2.36-8.77-4.19-13.06-.12,2.26-.4,4.52-.33,6.77.09,2.7.44,5.4.77,8.09.19,1.51-.02,2.8-1.31,3.74-1.51,1.11-2.81.76-3.54-.99-1.29-3.1-2.51-6.23-3.82-9.33-.46-1.1-1.02-2.17-1.62-3.2-1.27-2.21-1.73-4.52-.88-7.12-1.75-1.12-2.35-2.73-2.55-4.7-.17-1.65-.82-3.26-1.39-4.84-1.43-4.02-1.52-8.47-3.92-12.17-.24-.36-.48-.73-1.04-1.57-.55,2.35-1.09,4.17-1.37,6.04-.44,2.94-.79,5.9-1,8.86-.34,4.65-.08,9.39-.92,13.94-1.03,5.57-.32,11.21-1.34,16.73-.13.71.09,1.48.07,2.22-.03,1.48-.12,2.96-.18,4.45-.09,2.6-.19,5.21-.27,7.81-.04,1.31.15,2.65-.12,3.91-.92,4.31.46,8.77-.94,13.06-.21.63.2,1.45.28,2.19.35,3.51.73,7.02.98,10.54.1,1.37-.3,2.78-.18,4.14.51,5.78,1.27,11.55,1.65,17.34.27,4.07,0,8.17.1,12.25.04,1.83.5,3.66.56,5.49.19,5.04.74,10.02,1.77,14.96.28,1.36.32,2.78.3,4.18-.07,6.1.34,12.13,1.78,18.09,1.18,4.89,1.98,9.87,3.09,14.77.54,2.39,1.42,4.7,2.65,6.95.19-1.55.38-3.09.56-4.64.7-6.06.16-12.1-.08-18.16-.13-3.14-.31-6.29-.25-9.44.05-2.51.32-5.03.73-7.5.15-.9.89-1.75,1.52-2.5.59-.7,1.37-1.22,2.11-1.85,1.27.18,1.57,1.17,1.59,2.23.05,2.33,0,4.65,0,6.98,0,1.12-.19,2.27,0,3.36.89,5.28.54,10.62.65,15.93.05,2.42-.01,4.83.44,7.2.68,3.55,1.44,7.09,2.2,10.63.64,2.99,1.26,5.98,1.98,8.95.57,2.35,1.16,4.7,1.96,6.98,1.62,4.56,3.38,9.07,5.09,13.6.82,2.16,1.41,4.45,2.51,6.46,2.24,4.07,4.75,7.98,7.16,11.96.24.39.58.73.78,1.14,1.69,3.43,3.2,6.96,5.07,10.29,1.6,2.84,3.68,5.4,5.39,8.18,1.15,1.87,2.72,3.43,3.47,5.63.44,1.3,1.9,2.25,2.86,3.39.83.99,1.69,1.98,2.4,3.06,3.84,5.82,8.34,10.98,14.05,15.08,1.76,1.27,3.18,3.02,4.76,4.54.94.9,1.87,1.8,2.84,2.66,1.87,1.67,3.87,3.19,5.6,4.99,2.37,2.47,5.29,4.39,7.31,7.22.19.27.8.25,1.53.46-.16-.79-.15-1.33-.37-1.76-1.46-2.9-2.18-6.1-3.86-8.94-.9-1.53-.98-3.54-1.56-5.28-2.08-6.27-4.25-12.52-6.31-18.8-.81-2.47-1.45-5-2.07-7.52-.15-.59-.14-1.36.13-1.88.91-1.82,2.91-2.07,4.01-.32.97,1.53,1.49,3.38,2.03,5.14,1.43,4.62,2.74,9.28,4.17,13.9.8,2.57,1.72,5.11,2.63,7.64,1.05,2.91,2.29,5.57,5,7.52,3.84,2.75,7.37,5.93,11.06,8.89.5.4,1.15.6,1.73.88.76.36,1.61.6,2.26,1.1,3.48,2.66,7.63,4.1,11.37,6.27.72.42,1.33,1.03,1.98,1.55.51.41.96.97,1.54,1.19,3.96,1.5,7.95,2.91,11.92,4.37,1.02.38,1.98.98,3.03,1.24,1.86.46,3.64,1.49,5.72.73.46-.17,1.16.44,1.77.58.85.18,1.48-.52,1.14-1.34-.35-.85-.8-1.68-1.35-2.43-.92-1.26-1.95-2.43-2.91-3.66-.51-.65-.94-1.38-1.49-2-1.6-1.83-3.12-3.68-4.12-5.96-.58-1.34-1.65-2.46-2.49-3.69-.52-.77-1.13-1.5-1.49-2.34-1.52-3.6-2.99-7.22-4.42-10.86-.85-2.15-1.67-4.31-2.36-6.52-.78-2.49-.05-4.66,1.96-6.19,2.42,1.23,2.85,3.73,3.67,5.95,1.13,3.06,2.06,6.21,3.28,9.24.47,1.17,1.36,2.25,2.27,3.15,4.19,4.15,8.91,7.64,13.95,10.7,2.61,1.58,5.1,3.37,7.77,4.83,2.03,1.11,4.25,1.86,6.41,2.74,3.6,1.47,7.11,3.29,10.84,4.25,3.69.95,7.08,2.73,10.93,3.26,2.69.37,5.24,1.78,7.86,2.71,2.86,1.01,5.75,1.77,9.17,1.31-2.06-2.1-3.92-3.93-5.7-5.85-.88-.94-1.66-1.98-2.37-3.06-1.29-1.95-3.16-3.3-4.76-4.92-2.48-2.52-4.7-5.3-7.04-7.97-3.7-4.22-5.99-9.19-7.6-14.49-.23-.78.13-1.82.45-2.65.32-.84,1.19-.99,1.87-.48.73.56,1.44,1.25,1.9,2.03,1.41,2.42,2.76,4.88,4.01,7.38,1.35,2.69,2.81,5.28,5.22,7.34.31-.17.66-.3.94-.52,1.73-1.35,2.17-1.38,3.83.02,1.48,1.25,3.06,2.42,4.51,3.64,3.87,3.22,8.59,4.9,12.62,7.76.81.57,1.81.93,2.76,1.26,3.15,1.09,6.33,2.08,9.18,3.88.31.2.65.39,1,.47,1.89.44,3.77.83,5.48,1.89.7.43,1.78.25,3.08.4-1.3-2.52-3.27-3.93-4.93-5.56-2.73-2.69-5.54-5.26-7.57-8.57-.6-.99-1.13-1.88-.69-3.12.92-2.63,2.27-3.02,4.14-.96,1.63,1.8,3.09,3.75,4.63,5.63.83,1,1.68,1.98,2.59,3.06,1.9-.81,3.07.09,4.54,1.2,2.69,2.05,5.7,3.75,8.74,5.28,2.22,1.12,4.73,1.66,7.05,2.62,1.15.47,2.17.64,3.44.6,1.39-.04,2.78.89,4.21,1.29,2.75.77,5.5,1.6,8.3,2.14,1.83.35,2.84.87,2.97,2.3.22,2.23-.37,3.31-2.31,3.77-1.07.25-2.28.43-3.32.18-3.52-.84-6.99-1.89-10.62-2.89-1.91,3.16-4.78,1.87-7.22,1.13-2.44-.74-4.71-1.59-7.34-1.1-1.26.24-2.59.04-3.71-.87-.37-.3-.98-.35-1.49-.42-1.64-.23-3.34-.19-4.9-.65-4.2-1.23-8.38-2.57-12.5-4.04-2.17-.77-4.19-1.96-6.32-2.87-1.1-.47-2.29-.74-3.44-1.1-.81-.54-1.42-1.6-2.9-1.17.83,1.31,1.9,1.21,2.97,1.1ZM393.06,442.27c-.8-1.35-1.3-2.57-2.12-3.52-3.6-4.15-5.64-9.16-7.66-14.13-.97-2.38-1.22-5.06-1.68-7.63-.35-1.92-.46-3.89-.76-5.83-.73-4.8-1.58-9.59-2.24-14.41-.38-2.77-1.46-4.83-3.97-6.33-3.13-1.86-6.09-3.91-9.5-5.36-3.31-1.41-6.35-3.52-9.32-5.6-3.8-2.67-7.75-5.19-10.86-8.75-1.81-2.08-2.43-2.15-4.75-.77-.63.38-1.26.84-1.73,1.4-2.29,2.7-4.8,5.27-6.7,8.23-1.26,1.94-3.06,2.63-4.84,3.51-1.42.7-2.69-.29-2.45-1.92.23-1.54.57-3.21,1.36-4.51,2.83-4.61,5.68-9.24,9.54-13.1.86-.86,1.17-1.78.34-2.71-1.96-2.23-3.77-4.68-6.08-6.49-4.1-3.22-6.18-7.9-9.22-11.86-1.81-2.36-3.15-5.08-4.69-7.64-.52-.86-.84-1.95-1.58-2.53-2.83-2.26-4.5-5.39-6.28-8.37-2.23-3.74-4.11-7.69-6.03-11.61-2.74-5.6-5.53-11.19-8-16.92-1.55-3.58-2.72-7.35-3.74-11.13-.91-3.39-1.44-6.89-2.03-10.36-.43-2.57-.66-5.18-1.03-7.77-.77-5.27-1.6-10.53-2.34-15.8-.18-1.29-.06-2.61-.12-3.91-.08-1.67-.21-3.35-.31-5.02-.18-.02-.36-.05-.55-.07-.58,2.1-1.28,4.18-1.72,6.32-1.3,6.28-1.86,12.72-4.36,18.73-.38.92-.37,2.01-.55,3.02-.1.54-.05,1.21-.35,1.6-1,1.3-.92,2.77-.94,4.27-.02,1.21-.17,2.42-.33,3.63-.53,4.05.24,8.19-.91,12.19-.02.08.03.18.03.28,0,3.27.01,6.55-.03,9.82-.09,6.54-.43,13.08-.25,19.61.15,5.39.78,10.77,1.41,16.13.6,5.09,1.48,10.14,2.2,15.22.21,1.48.26,2.97.41,4.46.17,1.66.33,3.33.58,4.98.2,1.29.69,2.55.77,3.84.4,7.05,2.47,13.77,4.13,20.56.8,3.25,2.15,6.36,3.18,9.56,1.04,3.23-.34,5.08-3.69,4.96-1.6-.06-2.8-.99-3.66-2.28-.77-1.16-1.34-2.46-2.17-3.58-.58-.78-1.37-1.75-2.21-1.92-1.38-.28-1.74-1.18-2.29-2.17-1.7-3.08-3.48-6.12-5.2-9.19-1.85-3.32-3.83-6.59-5.45-10.02-1.8-3.82-3.4-7.75-4.8-11.73-.81-2.31-2.35-4.38-2.14-7.11.1-1.32-.39-3.11-1.29-4.01-2.33-2.32-3.49-5.12-3.73-8.19-.15-1.98-.86-3.73-1.29-5.58-.26-1.09-.55-2.18-.75-3.28-.49-2.61-.66-5.29-1.89-7.73-.33-.65-.51-1.41-.61-2.14-.36-2.59-.41-5.26-1.05-7.78-.62-2.42-1.14-4.9-1.7-7.31-.91-3.96-1.26-8.17-1.05-12.24.2-3.94-.6-7.66-1.14-11.46-.31-2.18-1.24-4.34-.27-6.6.17-.38.05-.94-.05-1.38-.73-3.13-.76-6.24-.12-9.4.25-1.24.46-2.58.26-3.81-.52-3.19-.17-6.4-.65-9.62-.42-2.78.32-5.76.65-8.63.32-2.77.84-5.53,1.18-8.3.55-4.44.92-8.9,1.6-13.32.34-2.19,1.29-4.27,1.79-6.45,1.27-5.54,2.43-11.09,3.64-16.65.35-1.61.7-3.23,1.08-5.01-1.62.19-1.73,1.38-2.26,2.31-.56.98-1.53,1.73-2.54,2.81.45,3.11-1.95,5.57-3.16,8.45-1.43,3.4-3.29,6.62-4.03,10.31-.23,1.18-.76,2.3-1.17,3.44-1.47,4.13-3.11,8.2-4.36,12.4-1.28,4.28-1.81,8.77-3.99,12.77-.34.62-.29,1.46-.42,2.19-.75,4.38-1.27,8.82-2.31,13.14-1.35,5.6-1.55,11.27-1.77,16.97-.12,2.98-.03,5.99-.46,8.93-.7,4.79.19,9.44.69,14.13,0,.09.03.21.09.26,1.51,1.3,2.68,2.8,3.72,4.54.67,1.12,2.47,1.53,3.71,2.34.96.63,1.84,1.38,3.26,2.46-3.48,1.26-6.46.24-9.59.82,0,.74-.04,1.56,0,2.37.13,1.96.42,3.91.43,5.86.03,5.8,1.81,11.25,3.54,16.65.84,2.63,1.49,5.17,1.61,7.89.06,1.4.11,2.8.14,4.19.04,1.6.19,3.12,1.21,4.51.44.61.62,1.57.57,2.35-.12,1.81-1.03,2.2-2.66,1.38-1.25-.63-2.1-1.55-2.34-2.95-.21-1.19-.24-2.42-.57-3.58-1.26-4.48-2.57-8.95-3.91-13.41-.62-2.04-1.64-4-1.99-6.07-.78-4.6-1.2-9.23-3.02-13.63-.94-2.27-1.26-4.8-1.86-7.22-.35-1.41-1.23-2.24-2.69-2.49-2.29-.4-4.59-.8-6.86-1.33-3.36-.79-6.69-1.74-10.05-2.54-1.35-.32-2.75-.39-4.12-.63-1.74-.31-3.46-.69-5.2-1.03-.63-.12-1.31-.11-1.9-.34-3.4-1.37-7-1.89-10.59-2.29-4.7-.53-9.43-.85-14.15-1.21-3.24-.25-6.49-.49-9.74-.62-1.23-.05-2.58.2-2.74,1.8-.22,2.18-1.37,4.05-1.87,6.09-.38,1.54-1.07,2.18-2.31,2.28-.46,2.77-.89,5.32-1.31,7.88-.03.18.02.37.04.56.29,2.2.71,4.38.83,6.59.18,3.26.28,6.55-.72,9.73-.63,2.02-2.28,2.55-3.81,1.1-.65-.61-1.27-1.46-1.48-2.31-.84-3.43-1.67-6.87-2.21-10.36-.49-3.18-1.1-6.33-1.78-9.47-.7-3.2-1.43-6.39-2.22-9.56-.38-1.52-.91-3.01-1.37-4.51-.56,1.77-.87,3.4-1,5.05-.45,5.77-.83,11.54-1.25,17.31-.24,3.35-.65,6.7-.74,10.06-.2,7.16-.26,14.33-.36,21.5,0,.55.16,1.11.2,1.66.22,3.07.47,6.13.64,9.2.2,3.61.21,7.23.52,10.83.54,6.31,1.21,12.6,1.88,18.89.26,2.41.58,4.82,1,7.21.78,4.42,1.74,8.81,2.48,13.24.91,5.47,1.6,10.98,2.51,16.45.67,4.03,1.62,8.02,2.28,12.05.54,3.29.7,6.65,1.3,9.93.87,4.79,1.2,9.81,4.65,13.76.17.2.21.52.33.77,1,2.19.35,3.2-2.01,3.01-2.27-.18-4.13-1.37-5.5-3.02-2.18-2.62-4.77-4.92-6.09-8.24-.85-2.12-2.24-4.02-3.3-6.07-.93-1.8-1.63-3.74-2.64-5.48-1.01-1.74-2.29-3.31-3.53-5.06,0,2.04-.23,4.09.05,6.07.48,3.41,1.29,6.78,1.91,10.18.22,1.19.52,2.45.35,3.61-.34,2.34.17,4.23,1.99,5.78.94.8,1.29,1.79.64,2.93-2.21.9-3.67-.24-4.91-1.74-2.23-2.69-5.42-4.49-7.09-7.68-2.78-.96-2.91-4.45-5.41-5.67-1.88-3.72-4.89-6.78-6.29-10.79-.29-.82-.61-1.76-1.95-1.94-.25,1.07-.59,2.04-.69,3.04-.18,1.67-.04,3.39-.36,5.03-.62,3.21-1.05,6.55-2.34,9.49-1.16,2.65-2.36,5.27-3.3,8.01-.97,2.82-2.08,5.59-2.99,8.43-.48,1.5-.47,3.18-1.03,4.64-.99,2.59-1.38,5.2-1.18,7.94.25,3.35.3,6.73.75,10.05.23,1.7.97,3.4,1.78,4.95,1.28,2.45,3.06,4.66,4.17,7.17,2.36,5.31,6.26,9.22,10.88,12.44,3.51,2.44,7.06,4.76,10.23,7.67,2.6,2.39,5.55,4.39,8.84,5.88,3.57,1.61,7.12,3.34,9.78,6.41.4.47,1.1.68,1.65,1.02,1.1.68,2.22,1.33,3.29,2.05.69.46,1.24,1.23,1.99,1.51,6.18,2.36,11.4,6.7,17.81,8.58.34.1.65.36.94.59,5.95,4.74,13.08,7.14,19.98,9.95,2.84,1.16,5.83,1.96,8.69,3.05,3.63,1.39,7.18,2.96,10.8,4.36,3.92,1.52,7.93,2.81,11.79,4.46,3.3,1.41,6.34,3.46,9.69,4.73,4.16,1.57,8.5,2.69,12.8,3.88,3.15.87,6.33,1.6,9.52,2.29,4.97,1.07,9.95,2.05,14.93,3.06.64.13,1.35.07,1.91.35,2.69,1.36,5.69,1.53,8.55,2.21,2.51.59,5.15.61,7.72.93.82.1,1.62.52,2.43.55,4.81.17,9.61.26,14.42.41,1.11.04,2.3.52,3.32.28,2.93-.69,5.75.02,8.63.22,4.46.32,8.94.58,13.41.67,2.49.05,5.02-.11,7.48-.5,4.77-.76,9.53-1.51,14.38-1.71,2.13-.09,4.25-.55,6.35-.99,3.88-.83,7.83-1.22,11.68-2.32,3.93-1.12,8.24-1.12,12-2.58,3.79-1.47,7.71-2.26,11.57-3.16,6.21-1.43,12.08-3.73,18.05-5.79,1.76-.61,3.44-1.83,5.2-1.92,1.71-.08,3.04-.63,4.45-1.34,1.59-.8,3.14-1.75,4.83-2.23,4.81-1.36,8.64-4.59,13.14-6.57,2.65-1.17,4.79-3.46,7.27-5.08,2.53-1.65,5.68-2.02,8.03-4.23,1.71-1.61,4.21-2.26,5.88-4.13.97-1.08,2.26-2.07,3.6-2.58,4.09-1.56,6.34-5.42,9.9-7.61,1.04-2.62,3.76-3.43,5.63-5.16,2.23-2.05,4.68-3.87,6.91-5.93,1.04-.96,1.82-2.22,2.61-3.42.87-1.33,1.59-2.7,3.18-3.41.56-.25.86-1.11,1.23-1.72.52-.84.86-1.82,1.51-2.53,1.75-1.92,3.58-3.76,5.45-5.56,1.45-1.4,3.12-2.59,4.5-4.06,2.47-2.64,4.39-5.78,7.41-7.95.78-.56,1.2-1.64,1.74-2.51.39-.63.55-1.56,1.1-1.91,1.87-1.2,1.51-3.17,1.92-4.95-1.31.9-2.2,2.16-3.27,3.25-.52.53-1.34.92-2.08,1.05-1.82.32-2.34-1.14-2.95-2.42-.59-1.24-1.03-2.4.27-3.55.53-.46,1.03-1.15,1.19-1.82.79-3.36,1.53-6.73,2.17-10.12.39-2.09.64-4.22.84-6.34.09-.97-.09-1.97-.18-3.47-1.82,1.8-3.39,3.11-4.65,4.67-3.16,3.91-6.28,7.86-9.21,11.93-2.57,3.57-5.66,6.62-8.72,9.72-1,1.01-3.45,1.25-4.59.42-.91-.67-1.74-1.56-1.2-2.85.67-1.6-.07-3.81,2.09-4.8.24-.11.17-.86.25-1.32.35-1.99,2.61-3.05,2.58-5.24,0-.05.14-.11.21-.16.16.06.34.09.49.18.21.11.4.26.96.64,0-.93,0-1.53,0-2.12,0-.62-.17-1.29,0-1.87.38-1.34.92-2.64,1.4-3.95,1.94-5.32,3.71-10.68,4.92-16.22.39-1.81.69-3.66,1.35-5.37.51-1.29.28-2.32-.09-3.42-3.18-.32-4.61-1.43-4.42-3.91.17-2.2.63-4.46,1.43-6.5.88-2.24,1.76-4.36,1.85-6.85.08-2.09.85-4.15,1.32-6.23.08-.35.33-.77.22-1.05-1.25-3.15,0-6.36-.23-9.54-.19-2.67.44-5.39.66-8.09.38-4.65.96-9.29,1.01-13.94.04-3.61-.59-7.23-.98-10.84-.06-.53-.25-1.14-.6-1.52-1.87-2.05-3.81-4.05-5.74-6.05-1.03-1.07-2.06-2.14-3.13-3.17-.98-.94-2.01-1.82-3.22-2.9-.85,1.65-1.86,2.35-3.16,3-1.27.64-2.45,2.18-2.9,3.57-1.23,3.82-3.45,6.78-6.83,8.8-.94.56-2.42.92-3.36.58-1.21-.43-1.83-1.8-1.55-3.28.12-.64.12-1.32.34-1.93,1.47-4.06,2.13-8.27,2.42-12.56.12-1.68.43-3.34.57-5.01.11-1.35-.38-2.17-1.88-2.63-1.93-.59-3.76-1.55-5.56-2.49-2.55-1.32-4.96-2.92-7.56-4.13-3.54-1.63-7.23-2.93-10.35-5.37-.37-.29-.73-.6-1.13-.83-1.77-1-2.93-.45-3.1,1.53-.08.92.13,1.86.14,2.79.03,2.78.41,5.62-.06,8.32-.69,3.95-.34,7.82-.18,11.74.18,4.54,1.39,8.93.79,13.63-.56,4.35-.77,8.85-.65,13.3.04,1.4-.29,2.88.03,4.2,1.09,4.56.43,9.15.37,13.71-.03,2.53-1.18,5.05-1.87,7.56-.24.88-.65,1.7-.9,2.58-.88,3.11-2.07,5.94-5,7.81-1.5.96-2.88,2.26-3.67,4.19,1.81.4,3.29.47,4.76-.5,1.48-.97,3.03-1.84,4.6-2.65,1.32-.68,2.69-1.31,4.11-1.72.56-.16,1.32.36,1.98.57-.28.62-.4,1.44-.87,1.82-3.52,2.83-7.15,5.51-11.54,6.9-2.04.65-4.13,1.18-6.13,1.94-3.75,1.41-7.45,2.9-11.58,1.77-.53-.14-1.12-.04-1.68-.11-1.85-.22-3.7-.47-5.55-.72-3.41-.45-6.82-1.27-10.23-1.24-3.66.04-6.08-2.16-8.84-3.8-1.03-.61-1.11-1.91-.48-3.02.61-1.07,1.6-1.29,2.66-.78.83.4,1.57,1,2.38,1.44.8.43,1.62,1.02,2.48,1.12,1.55.18,3.14.05,5.29.05ZM201.42,200.83l-.54-.12c-1.87,2.75-3.54,5.66-5.65,8.21-2.57,3.11-5.13,6.13-6.17,10.15-.13.51-.6.94-.92,1.4-2.16,3.1-4.47,6.11-6.44,9.33-3.14,5.16-6.09,10.44-9.05,15.7-1.64,2.92-3.14,5.93-4.72,8.89-1.27,2.39-2.84,4.66-3.74,7.18-1.11,3.08-2.29,6.01-4.56,8.44-.56.6-.98,1.39-1.28,2.16-1.08,2.77-2.09,5.56-3.11,8.35-.41,1.13-.68,2.32-1.14,3.43-.92,2.23-.4,3.24,2.01,3.03,3.76-.33,7.47-.06,11.15.57,5.23.91,10.61.91,15.71,2.59.34.11.78.18,1.08.05,2.7-1.15,5.36.15,8.05.12,1.46-.02,3.01.29,4.37.83,4.41,1.75,8.75,3.7,13.14,5.52.98.41,2.07.56,3.59.95-.23-1.3-.36-2.08-.52-2.86-.29-1.37-.63-2.73-.89-4.1-.37-2-.69-4.01-1.03-6.02-.44-2.57-.97-5.12-1.32-7.7-.3-2.28-.25-4.61-.62-6.87-1.15-6.98-2.53-13.92-3.64-20.9-.84-5.24-1.44-10.53-2.1-15.8-.68-5.46-1.53-10.92-.34-16.42.1-.45.13-.94.09-1.4-.46-4.91-.94-9.81-1.41-14.71ZM32.88,208.89c0,.93-.03,1.87,0,2.8.07,1.8.76,3.34,2.4,4.17,1.24.62,2.63,1.34,3.95,1.32,2.54-.04,5.3.17,6.97-2.6.49-.82,1.44-1.58,2.34-1.9,2.73-.95,5.09-2.5,7.34-4.21,1.78-1.35,3.54-2.78,5.06-4.41,2.4-2.58,4.17-5.73,7.18-7.76.45-.31.83-.77,1.15-1.23,1.64-2.34,3.62-4.25,6.28-5.44.56-.25.96-.85,1.41-1.31,1.28-1.32,2.44-2.79,3.86-3.93,1.16-.93,2.11-1.96,2.95-3.15,2.88-4.12,5.88-8.14,9.72-11.44.42-.36.76-.81,1.14-1.23,1.48-1.66,2.92-3.36,4.45-4.96,1.54-1.61,3.28-3.03,4.73-4.7,1.02-1.18,1.62-2.72,2.55-3.99,4.16-5.65,9.38-10.26,14.8-14.64,2.93-2.36,5.8-4.73,7.24-8.38.26-.66.86-1.22,1.39-1.73,3.64-3.45,7.04-7.08,9.82-11.28,1.11-1.69,2.33-3.44,3.89-4.67,1.97-1.55,2.71-4.19,5.09-5.32.5-.24.77-1.01,1.1-1.56.47-.78,1.09-1.54,1.3-2.39.48-1.93,2.44-2.42,3.43-3.85,1.95-2.83,4.02-5.58,6.07-8.34.33-.44.8-.78,1.21-1.16,2.58-2.35,5.3-4.57,6.94-7.76,1.64-.5,1.3-2.26,2.12-3.31,2.29-2.93,4.52-5.9,6.74-8.88.78-1.04,1.42-2.18,2.17-3.24,1.72-2.4,2.11-5.65,4.75-7.48.32-.22.36-.82.54-1.25.43-1.01.81-2.05,1.29-3.03,1.58-3.26,3.21-6.48,4.77-9.75.72-1.5,1.3-3.07,1.94-4.61.25-.6.57-1.18.77-1.8.85-2.64.57-3.41-2.2-3.97-3-.61-6.08-1.12-9.12-1.1-3.91.02-7.85.4-11.71,1.02-1.96.31-3.88,1.32-5.63,2.33-1.43.82-1.21,2.4.29,4.39.82,1.09,1.57,1.26,2.85.18,2.25-1.91,4.6-2.3,7.52-1.76,4.74.88,5.94,2.53,4.32,7.06-.09.26-.14.55-.27.8-2.44,4.67-5.42,9.04-7.38,13.98-.48,1.21-1.87,2.03-2.62,3.17-1.11,1.68-3.29,1.87-4.38,3.69-2.1,3.48-4.58,6.73-6.86,10.1-2.3,3.4-4.7,6.75-6.77,10.29-1.56,2.67-2.94,5.4-5.45,7.34-.49.38-.77,1.03-1.23,1.47-1.63,1.57-1.98,4.27-4.52,5.06-.29.09-.48.55-.69.86-1.67,2.39-3.89,4.33-5.18,7.05-.87,1.82-2.37,3.33-3.58,4.99-1.74,2.38-3,5.16-5.67,6.78-.35.22-.56.71-.78,1.11-1.14,2.09-1.76,4.49-3.99,5.89-.56.35-.75,1.26-1.13,1.9-.28.47-.53.99-.89,1.39-2.19,2.42-4.41,4.8-6.62,7.2-.5.55-.99,1.12-1.48,1.68-.91,1.05-1.76,2.16-2.75,3.13-1.54,1.5-3.02,2.99-3.93,5.02-.47,1.04-1.29,2.19-2.25,2.67-.93.46-1.47.88-1.85,1.83-.3.74-.85,1.47-1.48,1.98-3.15,2.6-5.38,5.9-7.35,9.42-.35.62-.82,1.28-1.4,1.63-2.94,1.76-4.93,4.45-7.12,6.96-2.26,2.59-4.18,5.52-7.29,7.26-.48.27-.85.73-1.28,1.09-2.62,2.22-4.62,5.15-7.72,6.83-.32.17-.59.46-.83.74-3.03,3.45-6.58,6.27-10.58,8.51-.69.39-1.67.81-2.32.6-1.39-.45-2.51-.21-3.75.41-1.32.66-3.21.07-3.78-1.27-.74-1.75-2.1-3.35-1.47-5.52.17-.57-.11-1.29-.26-1.92-.43-1.93-.54-3.79.1-5.77.53-1.67.62-3.49.79-5.26.13-1.36-1.49-3.28-2.79-3.4-1.56-.15-2.05.93-2.43,2.19-.94,3.12-2.03,6.2-2.9,9.34-1.73,6.23-2.49,12.61-3.04,19.04ZM449.14,333.69c-1.42-3.3-2.6-6.11-3.85-8.88-.45-1.01-1.13-1.92-1.6-2.92-1.3-2.77-2.54-5.56-3.82-8.35-1.82-3.97-3.95-7.84-5.37-11.94-1.42-4.12-2.5-8.32-4.48-12.26-.75-1.48-1.45-1.96-2.97-1.67-2.01.39-4.03.75-6.07,1-2.11.27-4.25.27-6.34.62-5.12.85-10.23,1.83-15.34,2.78-.49.09-.96.35-1.68.62,1.64.85,2.85.65,4.27.14,2.15-.78,4.44-1.16,6.68-1.68.12-.03.29.17.77.48-9.54,2.95-19,5.24-28.6,7.81.36.67.49,1.18.8,1.44,2.01,1.69,3.31,4.1,5.21,5.76,3.18,2.78,5.54,6.58,9.7,8.24.75.3,1.37.96,2,1.51.92.78,1.75,1.67,2.7,2.41,2.78,2.19,5.59,4.35,8.41,6.49,2.41,1.83,4.85,3.64,7.3,5.43.36.26.83.49,1.27.52,2.61.22,5.27.74,7.82.45,2.75-.32,5.6-.27,7.99.46,4.87,1.49,9.81.4,15.18,1.55ZM558.61,433.68c-1.34-.38-2.39-.66-3.42-.98-2.65-.83-4.23-2.99-5.92-4.95-1.24-1.44-.62-4.1.86-5.43,1.79-1.61,3.85-2.08,6.17-2.2,4.55-.25,7.86,2.91,7.61,7.44-.05.89,0,1.79,0,2.56,2.51-1.61,4.84-3.16,7.23-4.61.75-.45,1.68-.6,2.53-.9,1.66-.61,2.83-2,4.22-2.85,1.43-.87,2.4-1.89,2.81-3.19.69-2.17,1.73-4.09,2.83-6.04.4-.71.6-1.57.77-2.38.54-2.54.9-5.13,1.55-7.64.69-2.68,1.39-5.32,1.53-8.13.08-1.55-.79-3.33.69-4.79.23-.22-.27-1.19-.45-1.81-.23-.79-.66-1.57-.69-2.37-.09-3.16,0-6.33-.11-9.49-.03-1.06-.38-2.12-.69-3.15-.52-1.75-1.08-3.49-1.71-5.21-.5-1.38-.97-2.81-1.74-4.03-1.47-2.34-3.08-4.62-4.78-6.8-.69-.89-1.79-1.46-3.11-2.49-.66,2.28-1.05,4.08-1.7,5.78-.52,1.35-1.05,3.01-2.11,3.74-1.33.91-1.98,1.96-2.17,3.35-.32,2.28-1.29,4.26-2.35,6.25-.7,1.31-1.25,2.72-1.74,4.13-1.71,5.01-3.36,10.05-5.06,15.06-.39,1.15-1.02,2.22-1.33,3.38-.72,2.74-1.69,5.3-3.81,7.34-.49.47-.72,1.3-.89,2-1.01,4.26-2.32,8.41-4.78,12.09-1.09,1.63-1.84,3.28-2.14,5.31-.34,2.36-1.29,4.63-2.08,6.91-.96,2.79-1.84,5.57-1.78,9.01,5.44-1.52,10.73-2.4,15.76-4.92ZM350.49,305.97c3.34,12.98,6.28,25.83,9.86,38.5,1.09-.13,2.11-.57,2.5-.25,1.75,1.46,2.87.18,4.18-.64.87-.54,1.78-1.03,2.71-1.45,3.15-1.42,6.27-2.93,9.49-4.17,6.95-2.68,13.86-5.63,21.54-5.43.93.02,1.87.02,2.8.02.99,0,1.92-.18,2.74-.88-.78-.69-1.54-1.15-2-1.81-1.69-2.42-4.19-3.96-6.51-5.54-2.44-1.65-4.46-3.56-6.27-5.81-.27-.33-.64-.67-1.03-.8-4.22-1.41-6.73-4.82-9.5-7.95-2.44-2.76-4.95-5.46-7.2-7.93-1.73.48-3.01.73-4.2,1.2-2.73,1.08-5.65,1.64-8.24,3.21-1.3.79-2.91,1.94-5.26.84,2.18-1.78,4.05-3.31,5.92-4.84-3.98.56-7.89,1.22-11.55,3.72ZM384.3,400.17c.09,1.44.11,2.92.29,4.37.21,1.67.55,3.32.84,4.97.67,3.77,1.21,7.57,2.07,11.29.43,1.88,1.43,3.63,2.2,5.43.59,1.37,1.03,2.85,1.89,4.03,2.66,3.68,5.46,7.26,8.27,10.82.49.62,1.29,1.34,1.98,1.38,3.87.19,7.7-.5,11.02-2.41,3.69-2.12,6.42-5.46,8.22-9.29,1.15-2.45,2.53-4.89,2.43-7.9-.1-2.86.14-5.82.82-8.59,1.46-5.98.28-11.87-.06-17.8-.07-1.26-.64-2.12-2.06-2.19-1.01-.05-2.03-.15-3.04-.3-3.8-.6-4.34-.15-4.12,3.53.02.28.09.56.08.84-.17,3.16-.32,6.33-.55,9.49-.05.61-.31,1.29-.68,1.78-1.04,1.4-2.21,2.72-3.3,4.09-.99,1.23-2.26,1.72-3.69,1.08-3.18-1.42-5.75-3.36-6.29-7.21-.2-1.44-.99-2.8-1.53-4.19-.37-.95-.93-1.86-1.15-2.84-.49-2.19-1.5-3.97-3.25-5.08-1.67.98-3.2,2.48-4.87,2.69-2.02.24-3.56,1.13-5.53,2.01ZM397.41,281.62c-1.13,0-3.08.09-5.02-.02-2.86-.16-5.52.71-8.25,1.29-4.27.9-8.54,1.77-12.8,2.73-1.57.36-1.75,1.38-.66,2.66.84.98,1.58,2.04,2.4,3.04,1.24,1.5,2.45,3.05,3.82,4.43.53.54,1.46.95,2.2.94,1.28-.01,2.62-.24,3.83-.66,3.94-1.36,7.84-2.86,11.76-4.3.35-.13.74-.37,1.06-.31,2.6.5,4.96-.65,7.43-1,2.66-.38,5.32-.8,7.95-1.31,3.83-.74,7.63-1.59,11.45-2.36,1.46-.29,2.93-.48,4.39-.77,1.34-.27,1.53-1.13,1.13-2.32-.59-1.77-1.32-2.36-3.23-2.42-1.4-.05-2.92.27-4.16-.19-3.66-1.35-7.39-.75-11.06-.66-3.81.09-7.61.74-12.25,1.23ZM151.59,292.79c1.01.29,1.69.56,2.4.68,4.68.79,9.37,1.55,14.06,2.3.74.12,1.49.15,2.23.25,2.22.28,4.47.44,6.66.87,3.74.72,7.44,1.64,11.16,2.41,2.19.46,4.42.77,6.62,1.2,2.56.5,5.1,1.06,7.65,1.58,3.28.68,6.65,1.01,9.64,2.77.61.36,1.49.28,2.43.43.02-2.05-.89-2.94-2.22-3.64-2.47-1.31-4.89-2.72-7.34-4.06-.65-.35-1.33-.71-2.05-.87-3.88-.91-7.74-1.94-11.67-2.6-4.76-.8-9.58-1.26-14.36-1.9-.73-.1-1.53-.24-2.14-.61-1.84-1.12-3.91-1.11-5.92-1.37-.93-.12-1.9,0-2.79-.25-4.33-1.2-8.66-.39-13.1-.17-.37.87-.73,1.71-1.27,2.98ZM347.82,364.44c1.36,1.29,2.44,2.87,3.94,3.57,1.22.57,2.21,1.27,3.21,2.08,2.23,1.82,4.49,3.62,6.75,5.41,1.74,1.38,3.61,2.63,5.22,4.15,1.21,1.14,2.44,1.84,4.41,1.86-.35-.94-.56-1.73-.91-2.44-1.86-3.75-3.75-7.49-5.66-11.21-1.56-3.05-3.13-6.1-4.79-9.1-.95-1.72-1.52-1.84-3.09-.85-2.57,1.63-5.13,3.28-7.66,4.98-.51.34-.85.92-1.42,1.55ZM526.18,433.24c-1.97,2.8-3.64,5.25-4.35,7.95-1.06,4.07-4.45,6.64-5.88,10.38-.65,1.7-1.28,3.4-1.85,5.13-.26.78-.16,1.72-.54,2.41-2.2,3.97-3.52,8.22-4.39,12.64-.36,1.82-.64,3.66-1.07,6.12.9-1.03,1.47-1.45,1.72-2,2.12-4.85,6.18-8.69,7.34-14.04.1-.44.43-.82.63-1.24,1.37-2.84,2.78-5.67,4.1-8.54,1.39-3.04,2.63-6.16,4.06-9.19,1.41-2.99,1.57-5.94.24-9.6ZM375.22,376.16c.26-.08.53-.16.79-.24.06-.71.15-1.42.17-2.13.06-2.33.06-4.66.15-6.98.04-.92.41-1.84.39-2.75-.06-3.26-.23-6.51-.33-9.77-.04-1.31.01-2.62-.05-3.92-.07-1.37-.84-1.95-1.99-1.43-2.5,1.13-5.02,2.25-7.43,3.56-2.49,1.36-2.6,1.82-1.34,4.45,2.04,4.24,3.56,8.75,6.52,12.52.27.34.25.88.44,1.29.87,1.8,1.78,3.59,2.67,5.39ZM347.99,267.19c-1.01,1.56-.9,2.95-.79,4.33.12,1.58.34,3.15.4,4.73.15,4.19.22,8.37.37,12.56.05,1.41.72,1.79,2.04,1.28.43-.17.83-.43,1.21-.69,2.17-1.48,4.42-2.72,7.05-3.25.91-.18,1.73-.84,2.46-1.22-.05-.48-.03-.59-.08-.66-3.55-5.21-7.09-10.44-10.7-15.61-.42-.61-1.23-.94-1.97-1.47ZM12.23,24c-3.22,3.43-3.36,6.29-.77,9.83,1.42,1.94,2.75,3.96,4.08,5.97.24.36.38.86.4,1.29.09,2.38.07,2.38,2.32,3.16.25-.22.49-.53.8-.7,2.68-1.42,4.35-3.31,3.09-6.58-.03-.08,0-.19.02-.28.32-1.44-.34-2.49-1.25-3.52-2.23-2.51-4.37-5.1-6.61-7.6-.58-.65-1.4-1.08-2.08-1.6ZM370.51,297.94c-1.8-2.12-3.17-3.64-4.43-5.23-1.33-1.69-1.75-1.95-3.8-1.21-2.99,1.08-5.97,2.19-8.86,3.5-1.32.6-2.5,1.61-3.59,2.61-.45.41-.73,1.31-.65,1.93.12.97.62,1.9,1.04,3.06,1.54-.27,2.92-.41,4.25-.76,3.41-.9,6.71-2.15,10.35-2.23,1.75-.04,3.49-.99,5.7-1.67ZM50.36,182.53c-1.52,2.47-2.25,4.9-1.78,7.62.68,3.93,3.5,5.02,6.59,2.58,2.55-2.01,5.13-3.98,7.74-5.92.85-.64,1.32-1.39,1.45-2.27-2.11-.41-4.16-.46-5.9-1.23-2.74-1.2-5.45-.64-8.1-.79ZM462.34,355.54c-.52-1.59-.72-2.59-1.14-3.47-2.39-4.97-7.2-6.39-11.87-7.9-2.62-.84-5.38-1.25-8.02-2.07-2.27-.7-4.53-.84-6.92-.51.65.55,1.39.79,2.1,1.11,1.16.53,2.34,1.03,3.43,1.68,1.26.75,2.38,1.76,3.67,2.47,1.78.99,3.84,1.54,5.45,2.73,3.81,2.83,8.21,4.16,13.3,5.95ZM417.96,356.19c.39-.02,1.14,0,1.88-.09,3.25-.41,4.46-1.88,4.29-5.23-.03-.55-.27-1.08-.36-1.62-.18-1.08-.32-2.17-.47-3.26-.11-.82-.11-1.68-.35-2.47-.69-2.32-3.01-3.12-4.69-1.42-1.46,1.48-2.5,3.38-3.71,5.1-.37.52-.91,1.07-.96,1.64-.26,2.71.04,3.38,2.26,5.64.52.53,1.15.94,2.12,1.71ZM135.21,293.24c.62,3.36,1.32,6.31,1.67,9.3.19,1.65,1.28,7.78,2.03,8.85.23-.14.58-.23.66-.43,1.72-4.01,1.34-8.44,2.47-12.57.04-.16,0-.43-.12-.53-1.21-1.09-.34-2.34-.08-3.53-2.17-.35-4.13-.68-6.62-1.08ZM173.25,48.06c-1.28.09-2.27.18-3.26.23-2.52.13-4.23,1.72-4.58,4.25-.07.54-.23,1.08-.34,1.62-.5,2.44-1.04,4.88-1.48,7.33-.08.43.23.93.39,1.48,3.51-2.68,7.76-9.49,9.27-14.92ZM331.34,311.24c1.57-.29,3.01-.13,3.63-.76,2.13-2.15,5.05-2.71,7.5-4.17,2.25-1.35,2.78-2.7,1.43-5.33-5.23.78-7.86,5.39-11.79,8.09-.41.28-.43,1.14-.78,2.18ZM527.74,453.8c-2.11,5.73-5.25,10.7-6.88,16.41,2.93.07,4.06-.5,4.68-2.81.58-2.15,2.25-3.89,2.17-6.26-.01-.4.41-.82.67-1.21,1.63-2.4,1.56-3.44-.64-6.13ZM137.27,288.65c2.29,1.84,4.71,2.18,7.06,2.62.27.05.93-.7.97-1.12.03-.39-.47-1.11-.84-1.19-1.96-.43-3.95-.72-5.93-1.01-.21-.03-.46.24-1.26.7ZM218.13,289.49c-.23.03-.45.05-.68.08-.47,2.16.06,4.92,1.47,7.35-.27-2.58-.53-5.01-.78-7.43ZM96.94,427.26c-.26.07-.53.14-.79.21-.02.91-.48,1.96.85,2.43.2.07.82-.39.8-.47-.23-.74-.55-1.46-.85-2.18ZM513.73,482.15c2.2-1.34,2.23-1.4,2.15-3.21-.7,1.04-1.42,2.12-2.15,3.21ZM517.22,476.97c1.42-.44,1.56-1.2.81-2.78-.38,1.29-.6,2.03-.81,2.78Z"/>
      <path d="M479.2,62.93c.66-1.11.94-1.46,1.08-1.86.79-2.11,1.84-4.01,3.38-5.71,2.94-3.25,5.75-6.62,8.59-9.96,3.32-3.89,7.52-6.74,11.79-9.39,1.47-.91,3.44-.61,4.88-2.35,1.13-1.37,3.4-1.77,5.12-2.68,5.8-3.07,11.99-3.95,18.45-3.48,1.49.11,2.99.08,4.48.12,3.25.09,6.51.21,9.76.26,2.48.04,4.96-.13,7.43-.01,3.62.17,7.23-.61,10.88.27,1.77.43,3.63.46,5.39,1.12.66.25,1.69-.02,2.37-.4,1.62-.9,2.95-.86,4.71,0,3.11,1.51,5.86,3.41,8.46,5.62,1.05.89,2.25,1.61,3.39,2.4,1.22.85,2.52,1.61,3.62,2.59.87.78,1.74,1.17,2.78.71,1.69-.75,3.47-1.42,4.95-2.49,2.56-1.85,4.8-4.07,6.66-6.7,2.47-3.5,5.25-6.79,7.84-10.22.61-.8,1.13-1.75,1.39-2.71.41-1.49,1.27-2.28,2.76-2.31,1.47-.03,2.04,1.04,2.52,2.23,1.33,3.34,2.03,6.83,2.14,10.38.19,6.26.94,12.54-.22,18.77-.35,1.88-1.12,3.75-2,5.46-.78,1.5-1.8,1.66-3.03,1.04-1.35-.68-1.11-1.63-.73-2.83,1.27-3.98,1.3-8.03.75-12.16-.29-2.18-.08-4.43-.16-6.65-.04-1-.23-2-.43-3.64-3.3,3.49-4.86,7.66-8.19,10.32-3.24,2.59-6.53,5.11-10.02,7.83,1.64.87,2.81,1.58,4.06,2.12,2.8,1.22,5.04,3.5,8.14,4.16,4.57.97,7.91,4.24,11.79,6.5.77.45,1.21,1.42,1.9,2.04,1.74,1.54,3.55,3,5.32,4.5,2.46,2.09,5.08,4.02,6.38,7.15.21.5.6.97,1.02,1.31,2.48,2.06,3.56,4.96,4.77,7.79.29.67.44,1.53.95,1.94,1.46,1.16,1.9,2.8,2.24,4.42.64,3.07,1.9,6.11.82,9.34-.08.25-.06.57.02.82,1.99,5.78,1.74,11.98,3.38,17.83.45,1.59.22,3.36.62,4.97.53,2.14,1.37,4.21,2.04,6.32.22.7.38,1.42.51,2.15.33,1.83.63,3.66.94,5.5.53,3.19-.06,6.32-.52,9.45-.56,3.78-2.19,7.05-4.9,9.81-.83.84-1.33,2.01-2.01,3-.36.53-.69,1.18-1.2,1.47-1.25.7-1.26,1.55-.97,2.82.23,1.02.08,2.23-.23,3.26-1.13,3.66-2.57,7.21-4.95,10.27-1.77,2.27-3.55,4.53-5.37,6.76-.34.41-.87.87-1.36.93-2.81.34-4.1,2.45-5.25,4.56-1.42,2.61-3.68,3.87-6.35,4.67-2.09.63-4.01,1.56-5.3,3.42-1.2,1.74-2.73,2.75-4.91,2.76-.78,0-1.56.29-2.87.55,1.46,2.1,2.64,3.81,3.84,5.52.63.9,1.3,1.77,1.91,2.68.42.61.7,1.33,1.17,1.9,2.05,2.47,3.71,5.15,4.77,8.19.09.26.15.59.34.77,2.95,2.82,3.16,6.99,5.11,10.3,1.12,1.91,1.14,3.86.66,5.96-.48,2.08-.71,4.23-1.04,6.34-.06.36.03.86-.17,1.07-2.04,2.03-3.03,5.07-5.96,6.25-2.79,1.12-5.54,1.98-8.68,1.17-1.74-.45-3.7-.06-5.55-.07-1.38-.01-2.77.05-4.13-.13-5.84-.77-11.67-1.86-16.93-4.57-3.08-1.59-6.62-1.53-9.58-3.32-2.51-1.52-5.7-1.67-7.9-3.96-.64-.67-1.9-.69-2.79-1.16-3.6-1.9-7.05-4.05-10.39-6.41-2.56-1.81-5.63-2.97-7.96-5.01-2.53-2.22-5.97-3.06-8.08-5.85-.7-.92-1.86-1.51-2.86-2.18-4.99-3.37-9.96-6.76-14.43-10.83-2.19-2-4.44-3.95-6.64-5.94-2.34-2.11-4.72-4.17-6.97-6.38-1.11-1.09-1.87-2.53-2.95-3.66-2.51-2.62-5.08-5.18-7.71-7.68-.56-.53-1.42-.8-2.19-1.03-1.98-.59-3.67-1.35-4.85-3.32-1.17-1.96-2.89-3.6-4.33-5.4-3.29-4.15-6.58-8.28-9.25-12.9-1.85-3.2-4.42-5.98-6.49-9.08-1.65-2.47-2.97-5.15-4.54-7.67-.61-.99-1.56-1.76-2.26-2.71-1.93-2.6-3.56-5.47-5.76-7.81-2.5-2.66-3.69-5.97-5.44-9-2.79-4.84-5.62-9.69-7.99-14.74-1.48-3.17-3.14-6.38-3.41-10.04-.08-1.06-.6-2.17-1.2-3.08-2.14-3.24-3.03-6.99-4.49-10.5-.92-2.22-1.45-4.56-1.91-6.96-.58-3.07-2.09-5.97-3.2-8.94-.62-1.66-1.03-3.3-1.01-5.16.02-1.81-.62-3.66-1.13-5.44-1.22-4.27-.68-8.14,2.44-11.46.49-.52,1.13-1.02,1.8-1.22,2.49-.77,5.03-1.36,7.51-2.13.73-.23,1.58-.69,1.97-1.3.98-1.5,2.23-1.92,3.85-1.46,2.14.6,4.29,1.2,6.39,1.91,2.55.86,4.56,2.65,6.8,4.06,4.25,2.68,8.67,5.1,13,7.65,3.06,1.8,5.97,3.81,8.07,6.76.32.45.53.99.97,1.83ZM592.18,46.71c-3.13-2.94-5.67-5.7-9.24-7.18-.41-.17-.82-.49-1.07-.86-1.52-2.19-4.26-2.56-6.18-4.16-.5-.42-1.43-.43-2.16-.44-2.51-.04-5.02-.05-7.52.04-3.82.12-7.64.45-11.46.47-2.69.01-5.39-.38-8.08-.55-2.22-.14-4.46-.47-6.66-.28-4.01.33-7.96.54-11.89-.59-.44-.13-.94-.18-1.39-.11-3.12.52-6.26.95-9.33,1.69-2.69.64-5.19,2.04-8.07,1.9-.22-.01-.45.26-.78.46.07.9.15,1.8.22,2.7-2.21.12-2.33.02-3.7,1.63-2.14,2.54-4.73,4.48-7.5,6.23-.52.33-.89.92-1.3,1.4-.9,1.04-1.65,2.27-2.7,3.11-1.72,1.38-3.16,2.87-4.02,4.94-.27.66-.81,1.25-1.34,1.76-1.91,1.86-2.56,4.29-3.06,6.76-.11.54.13,1.35.52,1.75,1.13,1.18,1.96,2.27.8,3.91-.22.31-.05.9-.06,1.36-.05,1.61-.61,2.15-2.21,2.07-.63-.03-1.37-.46-1.85-.24-3.05,1.39-6.03,2.87-7.39,6.33-.41,1.04-.73,1.78.06,2.79.97,1.23,1.12,2.68.72,4.25-.91,3.57-.98,7.17-.47,10.84.24,1.72-.09,3.52-.14,5.29-.07,2.15-.2,4.29-.15,6.44.08,3.17.27,6.34.48,9.5.06.9.17,1.9.6,2.66,1.65,2.92,3.42,5.78,5.19,8.63.84,1.35,1.63,2.78,2.72,3.89,2.16,2.21,4.11,4.52,5.66,7.22.72,1.26,1.64,2.61,2.83,3.35,2.11,1.32,3.57,3.24,5.19,4.97,3.79,4.05,7.16,8.5,11.09,12.39,4.54,4.51,8.13,9.7,11.95,14.75,1.6,2.12,3.04,4.4,5.2,6.11,2.34,1.85,4.49,3.95,6.82,5.8.65.51,1.77.93,2.51.74,2.22-.57,3.84.1,5.19,1.78.7.88,1.57,1.17,2.41.39,1.38-1.26,2.82-.74,4.21-.25,2.2.77,4.32,1.79,6.55,2.48,2.62.82,5.32,1.41,7.95,2.09,1.33-3.92,3.01-4.65,6.56-3.17,1.73.72,3.45,1.52,5.25,1.96,1.49.36,3.22.63,4.64.23,2.3-.65,4.44-1.86,6.63-2.87,2.95-1.35,5.8-3.05,9.29-1.94,1.33.42,2.24-.17,3.01-1.38,2.09-3.28,4.76-6.07,8.2-7.9,3.61-1.92,6.36-4.82,9.2-7.59,3.01-2.94,5.78-6.12,8.6-9.24,1.08-1.2,2.31-1.81,3.96-1.72,1.11,2.12-.09,3.59-1.3,5.03-.72.86-1.51,1.65-2.3,2.45-3.2,3.27-6.28,6.65-9.64,9.75-2.73,2.52-5.78,4.68-8.7,6.99-2.24,1.76-4.5,3.5-6.99,5.44.38.65.81,1.4,1.05,1.81,2.1-.32,3.81-.51,5.49-.86,2.26-.47,4.5-1.06,6.75-1.63.35-.09.69-.31.99-.53,1.88-1.38,3.23-3.58,5.87-3.8.21-.02.37-.41.6-.57,3.1-2.21,6.17-4.45,8.25-7.74.1-.15.26-.29.43-.36,2.85-1.18,4.66-3.68,6.99-5.52.51-.4,1.09-.84,1.36-1.39,1.35-2.76,2.6-5.56,3.88-8.35.23-.51.28-1.25.67-1.51,2.88-1.93,4.09-4.85,4.98-8,.07-.26.26-.5.42-.73,4.14-6,5.25-12.62,4.08-19.73-.3-1.82-.36-3.68-.55-5.52-.04-.36-.06-.75-.22-1.05-2.8-5.01-3.21-10.6-3.93-16.11-.28-2.13-.37-4.28-.72-6.4-.49-2.9-.93-5.78-.63-8.74.06-.62-.04-1.3-.23-1.9-.9-2.75-1.85-5.48-2.83-8.2-.25-.68-.69-1.3-1.08-1.93-1.68-2.75-3.41-5.47-5.04-8.25-1.65-2.83-3.24-5.71-6.69-6.68-1.4-.39-2.45-1.06-3.39-2.23-.91-1.14-2.18-2.03-3.39-2.89-3.18-2.26-6.6-4.21-9.55-6.72-2.1-1.79-4.4-2.13-6.85-2.41-1.88-.21-3.58-.71-5.08-1.96-1.37-1.14-2.9-2.08-4.54-3.23-.04.62-.12.9-.07,1.15.25,1.38-.2,2.45-1.53,2.89-1.33.44-2.57-.18-3.13-1.29-.85-1.68-2.28-2.19-3.86-2.4-2.2-.3-4.43-.37-6.65-.57-.9-.08-1.79-.24-2.61-.35-.25-2.88.04-3.48,2.23-3.88,1.45-.26,2.98-.35,4.44-.18,2.64.31,5.25.86,8.53,1.42ZM473.19,143.12c1.76,2.27,3.16,4.1,4.59,5.91.74.94,1.56,1.8,2.3,2.74.5.64.88,1.38,1.39,2.02,1.08,1.37,2.63,2.4,2.8,4.38.03.32.58.6.9.88,2.4,2.06,4.73,4.12,6.22,7.05,1.47,2.9,3.23,5.65,5.75,7.85,2.03,1.77,4.06,3.58,5.81,5.62,3.45,4.02,6.72,8.2,10.68,11.76,1.31,1.18,2.66,2.32,3.97,3.5,2.32,2.11,4.29,4.54,6.63,6.67,4.43,4.05,9.41,7.3,14.23,10.76,3.67,2.63,7.55,5,11.22,7.66,1.73,1.25,3.44,2.55,5.27,3.62,3.69,2.16,7.39,4.32,11.21,6.21,4.55,2.25,9.25,4.21,13.88,6.29.17.08.36.09.54.15,2.64.87,5.43,1.44,7.87,2.7,4.14,2.13,8.74,1.99,13.05,3.15.09.02.19,0,.28,0,2.37-.09,4.75-.19,7.12-.26.65-.02,1.31.01,1.96.09,3.96.47,7.19-1.13,8.88-4.65.86-1.8,1.99-3.67-.02-5.64-.55-.54-.47-1.75-.62-2.66-.12-.73,0-1.53-.28-2.18-.87-2.05-1.66-4.18-2.86-6.03-2.58-3.97-3.65-8.83-7.27-12.17-.19-.17-.26-.49-.34-.76-.73-2.39-2.39-4.15-4.04-5.92-.95-1.01-1.97-1.31-3.27-.77-.66.27-1.38.4-2.31.66.3,1.04.47,1.96.82,2.79,1.26,2.94,1.98,5.99,2.27,9.18.15,1.66.43,3.32.86,4.93.79,2.93,1.73,5.81,2.6,8.72.19.63.39,1.26.46,1.9.33,3.03-2.49,6.24-5.42,5.57-3.92-.89-8.26-.68-11.54-3.69-.37-.34-1.05-.32-1.57-.52-.85-.33-1.7-.69-2.54-1.07-2.35-1.09-4.69-2.23-7.05-3.29-.93-.42-1.97-.61-2.88-1.06-3.97-1.98-7.91-4.01-11.85-6.04-.32-.17-.57-.47-.86-.71-2.08-1.65-4.71-2.56-6.36-4.78-.14-.19-.49-.29-.76-.33-2.21-.34-3.47-2.05-4.96-3.42-.55-.5-.99-1.13-1.57-1.58-3.16-2.43-6.35-4.83-9.53-7.24-.3-.23-.63-.41-.93-.62-3.75-2.72-7.57-5.36-11.24-8.19-1.83-1.41-3.44-3.13-5.1-4.76-3.43-3.39-7.17-6.51-9.75-10.68-.14-.23-.3-.48-.49-.67-2.45-2.52-4.88-5.06-7.38-7.54-3.1-3.08-6.07-6.35-9.46-9.09-3-2.43-5.15-5.35-6.94-8.66-.66-1.22-1.45-2.39-2.29-3.49-.96-1.26-2.34-2.28-3.02-3.66-1.49-3.02-4.15-3.95-7.54-4.85.32,1.38.57,2.44.82,3.5-.37.11-1.03.3-2.36.69ZM468.94,137.33c.61-1.01,1.2-1.57,1.25-2.18.15-1.93-.08-3.9.17-5.8.39-2.9-.96-5.16-2.66-7.06-3.63-4.05-5.58-9-7.86-13.77-1.14-2.38-1.56-4.9-3.7-7.01-1.92-1.89-2.75-5-3.78-7.68-1.74-4.52-3.29-9.12-4.83-13.71-.35-1.03-.72-2.29-.42-3.25.64-2.08,2.32-3.8,2.23-6.18,0-.14.19-.34.34-.42,1.65-.86,1.95-2.44,2.04-4.04.09-1.55.98-2.08,2.31-2.3,1.69-.29,4.32,1.39,5.57,3.5.66,1.11,1.46,2.14,2.28,3.14,2.42,2.93,5.35,5.46,7.18,8.88.14.27.56.39.96.66,2.73-3.26,4.62-7.13,8.72-9.12-.59-.81-.88-1.41-1.33-1.81-2.96-2.65-5.92-5.31-8.97-7.86-1.41-1.18-2.91-2.53-4.6-3.06-2.42-.76-4.32-2.08-6.14-3.7-3.42-3.03-6.97-5.9-11.16-7.86-2.54-1.19-4.32-.88-5.82,1.33-1.43,2.1-3.32,3.42-6,3.88.02,3.5-.07,6.91,1.06,10.22.58,1.71,1,3.34-.38,5.02-.47.57-.48,1.82-.24,2.61.74,2.39,1.89,4.66,2.55,7.06.91,3.32,1.66,6.64,3.44,9.68,1.15,1.97,2.1,4.15,2.67,6.35.95,3.68,2.91,6.84,4.68,10.09,1.15,2.11,2.64,4.05,3.67,6.21,2.24,4.71,4.81,9.22,7.67,13.58,2.35,3.58,5.07,6.92,6.68,10.96.46,1.15,1.38,2.12,2.39,3.61ZM544.37,196.87l-.39.62c.27.35.48.76.82,1.02,2.01,1.61,4.02,3.22,6.07,4.76,3.79,2.84,7.6,5.63,11.42,8.43.29.21.71.22,1.04.38,2.24,1.09,4.7,1.88,6.66,3.35,3.21,2.41,6.74,3.93,10.47,5.2,1.48.51,3.07,1.05,4.27,2,4.3,3.4,9.36,4.18,14.51,4.88.45-2.17.39-2.15-.07-3.36-.39-1.03-.64-2.11-.92-3.18-.6-2.35-1.13-4.73-1.77-7.07-.95-3.48-2.51-6.74-3.39-10.27-.6-2.41-1.61-5.17-4.6-6.33-.9.44-2.03.76-2.88,1.43-4.05,3.2-12.61,4.39-16.72.64-.92-.84-2.15-1.19-3.68-.82,1.52,1.62,1.81,2.43,1.22,3.31-.8,1.18-1.95,1.36-3.23.96-2.31-.73-4.61-1.48-6.91-2.21-3.97-1.25-7.95-2.49-11.92-3.73ZM468.89,109.9c.29,0,.58-.01.86-.02.16-.78.46-1.57.44-2.34-.05-1.66-.35-3.31-.42-4.97-.13-3.16-.25-6.33-.22-9.5,0-.95.47-1.92.81-2.84.21-.57.59-1.07.66-1.19-.86-1.45-1.49-2.53-2.14-3.6-.39-.63-.74-1.3-1.23-1.85-1.39-1.56-2.92-3.01-4.26-4.61-1.66-1.98-3.22-4.05-4.76-6.14-.88-1.19-1.75-1.13-2.95-.22,2.26,13.24,7.97,25.17,13.2,37.27Z"/>
      <path d="M620.4,481.98c-2.29-2.26-1.3-4.94-.79-7.39.7-3.38,1.34-6.71,1.4-10.2.04-2.39.75-4.76,1.13-7.14.39-2.46.76-4.92,1.12-7.39.1-.64-.03-1.39.26-1.91.49-.89.44-1.56-.26-2.26-.18-.18-.41-.5-.36-.7.51-2.24-.92-3-2.71-3.39-.94-4.02-1.58-7.91-1.24-11.94.07-.77-.42-1.58-.49-2.39-.22-2.47-.35-4.94-.53-7.41-.64-8.94-1.15-17.88-2-26.8-.3-3.12-1.45-6.15-2.15-9.23-.81-3.54-1.6-7.09-2.29-10.66-.15-.77,0-1.73.35-2.44.69-1.38.51-2.71.21-4.1-.66-3.01-1.42-6-1.95-9.03-.48-2.77-1.23-5.41-2.32-8.01-.67-1.59-.8-3.41-1.14-5.14-.49-2.52-.44-5.09-1.29-7.61-.66-1.94-.43-4.18-.59-6.2,2.95-1.59,3.79-1.48,5.03,1.19,1.21,2.6,2.05,5.37,3.05,8.07,1.48,4.01,3.23,7.94,4.34,12.05,1.16,4.31,3.74,8.12,4.02,12.76.14,2.44,1.27,4.81,1.88,7.23.18.71.11,1.47.19,2.21.14,1.18.32,2.36.47,3.55.34,2.62.59,5.25,1.04,7.85.28,1.61.82,3.18,1.3,4.76.24.79.75,1.53.87,2.33.72,4.59,1.24,9.22,2.07,13.79,1.03,5.69,2.31,11.33,3.43,17,.61,3.08,1.13,6.18,2.09,9.3.07-.37.2-.75.2-1.12.04-4.45.08-8.89.07-13.34,0-1.21-.09-2.43-.28-3.63-.89-5.53-.31-11.13-.76-16.67-.38-4.74-1.09-9.45-1.51-14.19-.31-3.53-.4-7.08-.6-10.62-.27-4.83-.17-9.68-.97-14.48-.18-1.05.16-2.18.23-3.28.06-.91.28-1.88.06-2.73-2.18-8.59-1.58-17.47-2.64-26.17-.48-3.88-.86-7.73-1.65-11.57-.76-3.73-1.49-7.55-1.53-11.34-.05-4.72-1.68-9.06-2.44-13.6-.63-3.76-1.26-7.52-1.98-11.26-.43-2.25-.62-4.55-1.84-6.63-.59-1-.97-2.37-.82-3.49.29-2.16-.46-4.02-.96-5.99-.25-.99-.44-2.02-.49-3.03-.05-1.04.52-1.68,1.55-2.06,1.06-.4,1.81-.15,2.47.66.23.29.54.57.64.9.95,3.29,1.85,6.6,2.8,9.89.39,1.34.88,2.66,1.33,3.98,1.07,3.11,1.1,6.39,1.64,9.59.59,3.49,1.66,6.9,2.35,10.37.87,4.4,1.56,8.83,2.32,13.25.8,4.66,1.43,9.33,2.35,13.98.84,4.27.71,8.72,1.15,13.08.37,3.6.94,7.19,1.42,10.78.08.64.24,1.31.16,1.94-.43,3.48.04,6.86.86,10.23.06.27.27.57.2.79-1.18,3.62.4,7.23.08,10.84-.06.72.06,1.53.36,2.19.45,1.01.16,1.91.12,2.9-.09,2.31.35,4.63.52,6.96.2,2.7.33,5.41.51,8.11.24,3.53.54,7.05.76,10.58.34,5.4,1.01,10.82.81,16.2-.14,3.61.6,7.17.12,10.8-.29,2.25.85,4.72.46,6.93-.61,3.44-.32,6.86-.6,10.27-.23,2.78-.34,5.58-.33,8.37,0,1.28.61,2.57.57,3.84-.11,2.82,1.03,5.54.3,8.45-.43,1.73-.05,3.66-.03,5.5,0,.18.13.38.09.55-.6,2.87-1.23,5.73-1.82,8.61-.13.63-.33,1.37-.12,1.92.7,1.79.32,3.46-.07,5.22-.37,1.72-.42,3.5-.62,5.33-1.98,1.15-2.73,1.13-4.37-.17-3.24-2.55-3.45-3.69-1.9-7.58.5-1.25.79-2.69.73-4.02-.23-4.57-.48-9.15-1.07-13.68-.45-3.42-1.43-6.77-2.17-10.14h-.63c-.45,2.48-.89,4.98-1.37,7.47-.21,1.08-.55,2.14-.72,3.23-.47,2.92-.92,5.84-1.31,8.78-.32,2.39-.54,4.8-.82,7.2-.09.84-.37,1.69-.27,2.5.31,2.47-.57,4.74-1,7.09-.26,1.45-.14,2.97-.08,4.46.05,1.14-.19,2.1-.64,3.19-.76,1.87-.94,3.96-1.43,5.94-.75,2.99-1.58,5.95-2.33,8.93-.23.89-.29,1.83-.47,2.73-.25,1.26-.26,2.67-.85,3.76-2.37,4.38-3.43,9.17-4.81,13.89-.8,2.72-2.31,5.24-3.46,7.86-1.16,2.64-2.39,5.26-3.38,7.97-.73,2.01-.98,4.2-1.71,6.21-1.13,3.12-2.51,6.16-3.73,9.25-.89,2.25-1.56,4.59-2.58,6.78-1.84,3.96-3.84,7.86-5.83,11.75-1.6,3.13-3.23,6.25-4.94,9.33-.9,1.62-1.96,3.15-3,4.69-1.45,2.17-2.94,4.32-4.42,6.48-.42.61-.75,1.36-1.31,1.8-2.81,2.21-5.02,4.87-6.77,8-.95,1.69-2.25,3.2-3.49,4.71-.72.88-1.51,1.66-1.43,2.92.02.26-.08.63-.27.77-3.37,2.57-5.43,6.66-9.6,8.3-.25.1-.58.25-.79.17-1.77-.69-3.02.36-4.29,1.27-2.55,1.83-5.54,2.63-8.4,3.75-1.09.43-1.77.1-2.38-.78-.42-.6-1.06-1.1-1.34-1.75-.34-.8-.83-1.92-.53-2.53.66-1.35.89-2.92,2.36-3.96,1.03-.73,1.23-2.32,1.05-3.76q-2.09.69-2.61,3.16c-1.72.26-2.63,1.29-3.65,2.83-2.42,3.66-6.06,6.08-10.12,7.82-3.97,1.71-7.9,3.53-11.85,5.29-.17.08-.41.25-.5.19-2.38-1.5-4.62.52-7.01.23-3.08-.37-3.52-.47-4.49-3.45-.11-.33-.31-.63-.54-1.08-4.46,3.62-8.8,7.13-13.26,10.75-1.4-.58-2.8-1.27-4.27-1.73-.52-.16-1.21.29-1.83.33-.88.06-1.87.25-2.64-.05-1.79-.72-2.05-1.57-1.01-3.26,1.22-1.96,2.67-3.77,3.95-5.7,1.38-2.07,2.7-4.19,3.98-6.32.27-.45.4-1.09.34-1.6-.06-.48-.39-1.16-.76-1.29-.36-.13-1.19.2-1.37.55-2.02,4.06-5.99,6.35-8.7,9.76-1.49,1.87-3.33,3.41-5,5.02-2.56,2.47-3.84,5.88-6.51,8.1-1.46,1.21-3.24,2.13-5.02,2.83-1.45.57-3.89-1.34-4.46-3.14-.5-1.57.42-2.82,2.29-3.79,1.01-.52,1.97-1.43,2.57-2.4.96-1.56,1.61-3.32,2.39-5-1.01-.71-1.75-.44-2.61.17-4.09,2.91-8.2,5.79-12.36,8.62-2.28,1.55-4.91,2.22-7.61,2.54-.88.1-1.35.47-2.03,1.08-3.34,3-7.14,5.26-11.72,5.77-1.88.21-4.34-2.16-4.06-4.03.1-.69.81-1.43,1.44-1.86,1.6-1.09,3.41-1.89,4.96-3.05,4.55-3.4,9.36-6.47,13.49-10.4.39-.37.72-.89.89-1.41.84-2.54,2.88-3.4,5.21-3.55,2.54-.16,4.14,1.32,4.97,3.94,2.6-1.63,5.03-3.17,7.47-4.68,1.33-.82,2.6-1.85,4.05-2.3,1.15-.35,1.59-.96,2.15-1.88,1.98-3.2,3.23-6.67,4.49-10.2.69-1.95,2.26-3.63,3.65-5.26.51-.6,1.9-1.17,2.38-.89.71.42,1.28,1.6,1.32,2.48.04.91-.61,1.85-.96,2.77-1.9,5.01-4.6,9.74-5.59,15.67,1-.53,1.62-.7,2.01-1.09,2.59-2.61,5.25-5.17,7.66-7.94,1.82-2.09,3.53-4.32,4.48-7.02.34-.95.84-1.88,1.43-2.71,1.84-2.57,3.32-2.68,5.75-.43,1.03-.63,1.64-1.44,1.98-2.73.75-2.78,1.75-5.49,2.73-8.2.34-.94,1.04-1.74,1.43-2.67.83-1.97,1.59-3.96,2.32-5.96,1.06-2.93,2.19-5.79,5.37-7.07,2.89,1.11,3.38,2.51,1.99,5.07-1.14,2.12-2.24,4.28-3.17,6.5-1.82,4.37-3.46,8.8-5.25,13.18-.91,2.23-2.05,4.37-2.94,6.61-1.22,3.09-2.21,6.28-3.47,9.35-.66,1.62-1.74,3.07-2.54,4.64-.79,1.55-1.49,3.14-2.45,5.21,3.48-.95,5.75-2.65,7.85-4.62,2.44-2.29,4.83-4.65,7.34-6.87,1.31-1.16,2.8-2.14,4.26-3.11,2.89-1.93,4.28-5.1,6.32-7.72,2.17-2.79,4.46-5.57,6.06-8.69,1.82-3.56,4.65-6.52,5.73-10.52.68-2.49,2.06-4.79,3.1-7.19.81-1.87,1.52-3.79,2.37-5.64.34-.75.82-1.49,1.41-2.05.69-.65,1.61-1.14,2.52-.37.86.72,1.72,1.53,1.12,2.87-.5,1.1-1.06,2.19-1.48,3.32-1.28,3.41-2.56,6.82-3.72,10.27-.35,1.04-.37,2.21-.48,3.32-.14,1.53-.67,2.75-1.71,3.99-1.59,1.9-2.72,4.18-4.07,6.29-1.84,2.88-3.68,5.75-5.53,8.62-1.01,1.56-2.3,3-3.02,4.68-1.04,2.42-2.61,4.45-3.99,6.63-.27.43-.22,1.27.02,1.74.14.27.97.2,1.5.23.27.02.57-.04.82-.15,3.83-1.59,7.67-3.14,11.45-4.83.86-.39,1.53-1.26,2.22-1.97,1.92-1.99,3.82-4.01,5.71-6.03,1.12-1.2,2.31-2.35,3.3-3.64,1.86-2.43,3.59-4.96,5.42-7.42.44-.6.94-1.3,1.57-1.57,1.41-.6,1.96-1.63,1.94-3.07,3.84-1.69,5.34-5.51,7.82-8.4,1.29-1.51,2.53-3.22,2.59-5.4,0-.18.02-.46.13-.53,2.21-1.48,1.58-3.9,2.01-5.97.35-1.67.91-3.14,2.38-4.28,2-1.55,2.5-4.11,3.18-6.34,1.33-4.4,3.34-8.37,5.75-12.24,1.17-1.88,2.54-3.07,4.69-3.58,1.54-.37,2.27.62,3.11,1.42.9.86.26,1.66-.35,2.44-1.75,2.26-3.37,4.62-4.38,7.33-.64,1.73-1.31,3.45-1.95,5.19-.48,1.31-.57,2.96-1.44,3.9-2.55,2.74-2.6,6.57-4.53,9.55-.31.47-.06,1.29-.13,1.93-.11.92-.12,1.9-.47,2.73-1.55,3.79-3.06,7.61-4.85,11.3-2.27,4.68-4.78,9.24-7.21,13.83-.21.39-.65.65-.93,1.01-.81,1.05-1.47,2.14-.79,3.74,3.13-1.43,5.84-3.25,8.03-5.77,2.68-3.1,5.57-6.07,7.85-9.44,2.52-3.73,5.76-6.8,8.46-10.3,2.5-3.25,5.13-6.47,6.9-10.28.88-1.9,2.37-3.52,3.57-5.28.42-.61.9-1.22,1.15-1.9,1.12-3.05,2.16-6.12,3.25-9.18.16-.44.31-.92.61-1.26,2.38-2.75,3.19-6.25,4.57-9.47.5-1.17.95-2.48.95-3.72,0-2.47.68-4.66,2.18-6.51,1.81-2.23,2.2-5.06,3.51-7.48,1.78-3.29,2.33-6.99,3.62-10.43.73-1.93,1.58-3.86,2.42-5.77.88-2.01.71-4.49,2.65-6.04.09-.07.06-.36,0-.52-.98-2.53.69-4.67,1.11-6.97.55-3,1.71-5.88,2.61-8.82.05-.18.16-.37.13-.54-.71-4.62,1.15-8.88,1.87-13.29.37-2.28.89-4.55,1.4-6.8.14-.61.51-1.16.9-2.04ZM621.72,428.9c.22.03.44.07.65.1.05-.69.11-1.38.13-2.08,0-.03-.27-.08-.52-.15-.09.72-.18,1.42-.27,2.13ZM622.6,431.3c-.23.65-.42.96-.42,1.26,0,.19.31.37.48.55.22-.24.59-.46.63-.72.03-.24-.31-.52-.69-1.1ZM448.99,643.84c-.46-.19-.71-.4-.85-.34-.22.09-.45.34-.51.56-.03.11.36.49.44.46.28-.11.5-.35.92-.68Z"/>
      <path d="M87.47,116.56c-.66,1.5-1.59,2.23-2.85,2.41-3.9.54-7.83,1.22-11.3-1.56-.41-.33-1.07-.35-1.52-.65-1.88-1.24-4.4-1.94-4.19-4.98.03-.4-.27-1.02-.6-1.2-2.9-1.58-3.49-4.72-4.96-7.26-3.49-6.03-3.46-12.62-2.75-19.24.19-1.79,1-3.56,1.77-5.22.64-1.38,2.56-1.34,3.52-.1.98,1.26.98,2.71-.15,4.02-1.34,1.55-2.33,3.12-1.46,5.27.13.33.18.77.09,1.11-.99,3.82.55,7.14,2.03,10.48.91,2.05,1.79,4.11,2.79,6.11.41.82,1.15,1.46,1.68,2.22.62.89,1.16,1.83,1.75,2.72.36.53.66,1.2,1.16,1.52,2.68,1.68,5.33,3.47,8.71,3.35,2.05-.08,4.08,0,6.26.99Z"/>
      <path d="M33.64,143.09c-2.38,1.24-4.57.52-6.11-1.74-1.85-2.71-3.28-5.62-4.22-8.76-.54-1.83-1.42-3.41-2.9-4.69-.9-.78-1.61-1.81-2.26-2.81-2.51-3.85-4.78-7.77-4.73-12.62.02-1.37-.44-2.74-.63-4.12-.06-.45-.15-1.05.08-1.37.49-.71,1.17-1.28,1.77-1.91.54.58,1.37,1.07,1.57,1.75.73,2.51,1.39,5.06,1.81,7.63.53,3.23,2.38,5.85,3.68,8.73.11.24.33.49.56.61,3.81,1.91,4.86,5.75,6.3,9.22,1.01,2.42,1.83,4.86,3.51,6.95.72.89,1.07,2.09,1.57,3.14Z"/>
      <path d="M138.02,93.4c-.27-.52-.63-.9-.65-1.3-.19-4.47-2.59-8.36-3.25-12.71-.29-1.93-.68-3.84-1.05-5.76-.34-1.78-1.05-3.27-2.45-4.58-1.69-1.58-3.09-3.48-4.59-5.27-1.01-1.2-1.16-2.49-.44-3.31.73-.83,1.95-.9,3.29.09,1.19.88,2.28,1.93,3.27,3.04,1.3,1.45,2.66,2.92,3.63,4.59.83,1.41,1.26,3.09,1.68,4.7.66,2.52,1.23,5.07,1.72,7.64.54,2.82.89,5.69,1.44,8.51.4,2.08-.5,3.33-2.61,4.36Z"/>
      <path d="M41.01,101.88c3.62,3.07,4.78,6.95,5.59,11.01.89,4.48,2.39,8.74,5.02,12.5.79,1.13,1.91,2.03,2.94,2.97,1.09,1,2.35,1.83,3.36,2.9.93.99,1.63,2.21,2.53,3.45-1.24,1.43-2.69.71-3.69-.02-3.07-2.24-6.04-4.64-8.93-7.11-.81-.69-1.42-1.77-1.82-2.79-1.44-3.71-2.98-7.41-4.04-11.23-.8-2.93-.98-6.04-1.31-9.08-.09-.84.23-1.73.36-2.6Z"/>
      <path d="M133.61,26.32c2.75.24,5.33.4,7.89.74.86.12,1.77.58,2.47,1.13,3.54,2.79,6.9,5.77,8.69,10.07.35.85.74,1.74.85,2.64.07.54-.23,1.3-.63,1.66-.26.24-1.17.13-1.5-.16-1.18-1.04-2.51-2.06-3.28-3.38-1.71-2.95-4.38-4.86-6.96-6.83-1.06-.81-2.8-.79-4.24-1.04-1.72-.29-3.47-.47-5.2-.7-.89-.12-1.68-.42-1.74-1.48-.07-1.18.52-1.99,1.63-2.32.71-.21,1.47-.24,2.04-.33Z"/>
      <path d="M69.54,173.74c-1.49-.68-2.88-.97-3.8-1.8-2.26-2.03-4.96-3.04-7.8-3.45-4.62-.66-8.03-3.34-11.39-6.18-1.29-1.09-1.38-2.41-.52-3.46.73-.88,1.9-.97,3.3-.15.72.42,1.48.87,2.04,1.47,2.41,2.59,5.68,3.38,8.81,4.58,3.55,1.36,6.92,3.17,10.37,4.78,1.01.47,2.03,1.19,1.45,2.3-.43.83-1.61,1.28-2.47,1.91Z"/>
      <path d="M11.68,97.2c-1.73-2.95-1.27-5.87-.57-8.9.54-2.34.51-4.81.95-7.18.55-2.99,1.14-6,2.07-8.88.38-1.19,1.53-2.32,2.61-3.06,1.06-.72,2.09.14,1.82,1.43-.51,2.45-1.21,4.86-1.72,7.3-.66,3.18-1.29,6.37-1.8,9.58-.4,2.47-.58,4.98-.9,7.46-.18,1.44-1.26,1.92-2.46,2.25Z"/>
      <path d="M79.24,43.26c0,3.82-1.5,5.85-4.97,7.06-3.55,1.24-5.33,4.11-6.59,7.36-.53,1.37-.63,2.91-1.07,4.33-.13.43-.75.96-1.15.97-.41,0-.92-.51-1.2-.93-.24-.35-.35-.89-.31-1.33.26-2.76.58-5.52.9-8.28.03-.27.1-.62.28-.78,2.51-2.22,4.06-5.57,7.94-6.19,2.04-.33,3.96-1.39,6.17-2.2Z"/>
      <path d="M92.85,150.86c-4.13-.68-7.83-.73-11.06-1.98-2.99-1.16-5.98-1.93-9.07-2.56-1.23-.25-1.72-1.07-1.56-2.26.15-1.14,1.29-2.14,2.41-1.84,4.47,1.19,9.24,1.07,13.41,3.63,1.46.9,3.58.9,5.41.99,2.26.1,2.99.3,3,1.48,0,1.31-1.63,2.59-2.55,2.54Z"/>
      <path d="M39.71,84.2c-1.19-.12-1.99-.2-2.69-.27-1.07-3.37-2.37-6.49-3.03-9.75-.91-4.53-.61-9.12,1.35-13.39.63-1.37,1.75-2.7,3.92-2.37.08.58.3,1.2.22,1.78-.15,1.01-.45,2-.74,2.98-1.3,4.38-1.46,8.75-.31,13.22.62,2.4.82,4.91,1.29,7.8Z"/>
      <path d="M76.51,14.83c-.58.84-.81,1.57-1.26,1.76-1.92.78-3,2.44-4.36,3.83-3,3.06-6.01,6.12-9.21,8.97-2.05,1.83-3.9,3.74-5.16,6.2-.29.57-.7,1.07-1.04,1.6-1.79-1.1-1.75-2.15-.99-3.34,1.26-1.96,2.5-3.94,3.84-5.85.52-.75,1.2-1.44,1.95-1.96,3.11-2.15,5.27-5.21,7.77-7.96.6-.66,1.4-1.14,2.13-1.66.3-.21.71-.27,1-.48.57-.42,1.05-1.21,1.64-1.3,1.04-.16,2.15.09,3.69.2Z"/>
      <path d="M112.1,80.89c-2.43.65-3.89-.53-4.99-1.81-2.84-3.29-7.02-3.97-10.62-5.76-.81-.41-2.01-.03-3.03-.02-.98,0-1.96,0-3.04,0,1.41-3.37,4.89-4.88,8.33-3.59,2.78,1.04,5.6,2.12,8.13,3.64,2.64,1.6,4.48,4.06,5.22,7.55Z"/>
      <path d="M98.29,43.05c1.29.15,2.56.24,3.8.46,2.4.42,4.87.66,7.16,1.42,2.36.78,4.56,2.08,6.81,3.19,1.1.54,2.1,1.22,2.13,3-2.72.55-5.38.5-8.02-.56-1.89-.76-3.8-1.45-5.68-2.22-1.8-.73-3.58-1.5-5.34-2.31-1.05-.49-1.57-1.29-.85-2.99Z"/>
      <path d="M109.85,90.28c2.06.84,2.2,2.18,1.82,3.45-1.03,3.45-2.11,6.89-4.93,9.44-1.09.99-1.98,2.21-3.09,3.17-.39.34-1.24.43-1.74.24-.35-.13-.73-.99-.62-1.38.27-.92.62-1.98,1.29-2.6,2.85-2.62,4.75-5.8,6.01-9.42.32-.93.77-1.81,1.25-2.89Z"/>
      <path d="M596.48,393l-.55,1.29c-.13-.06-.27-.11-.4-.17.18-.43.37-.86.55-1.29.13.06.27.11.4.17Z"/>
      <path d="M431.6,678.03h-.25c0-.16,0-.32,0-.47.08,0,.24,0,.24,0,.01.16.01.32.01.47Z"/>
      <path d="M732.68,419.07c-.11-.11-.3-.23-.3-.34,0-.12.2-.23.31-.34.11.11.3.23.3.34,0,.12-.2.23-.31.35Z"/>
      <path d="M168.69,434.61c1.7.74,3.4,1.48,5.1,2.22-2.56-3.27-3.67-7.12-4.48-10.78-1.13-5.1-2.86-10.18-2.56-15.56.07-1.27-.33-2.57-.55-3.86-.63-3.57-1.26-7.15-1.95-10.71-.25-1.27-.82-2.49-.99-3.76-.31-2.28-.38-4.59-.64-6.88-.19-1.62-.57-3.22-.79-4.84-.45-3.41-.83-6.82-1.28-10.23-.07-.53-.19-1.23-.55-1.53-1.32-1.07-1.41-2.6-1.66-4.05-.57-3.31-1.06-6.63-1.64-10.36-.89.19-1.83.35-2.75.61-.71.2-1.38.75-2.08.77-2.82.08-3.51,2.18-4.04,4.26-1.01,3.97-2.75,7.78-2.69,11.99,0,.62.02,1.28.21,1.86.85,2.54.58,3.34-1.78,4.78-.39.24-.79.45-1.15.66-.36-.15-.68-.19-.86-.37-2.87-3.03-6.04-5.85-7.34-10.03-.39-1.25-1.08-2.03-2.47-2.35-1.57-.36-2.49-1.34-2.49-3.2,0-1.93-.36-3.82-.16-5.81.2-2-.33-4.08-.64-6.11-.19-1.24.4-1.95,1.05-2.94,1.64-2.47,3.26-3.86,6.29-2.14.66.37,1.93.12,2.72-.25,3.06-1.43,6.37-1.34,9.59-1.77,4.44-.6,8.9-1.49,13.34-1.44,3.98.05,7.9-1.01,11.96-.15,3.67.78,7.54.59,11.26,1.23,4,.69,7.96,1.66,11.7,3.43,2.78,1.32,5.77,2.19,8.54,3.52,5.12,2.45,10.17,5.07,15.23,7.66.57.29,1.14.73,1.5,1.25,1.63,2.34,4.16,3.64,6.21,5.48,3.05,2.73,5.84,5.68,7.23,9.65.19.54.08,1.19.11,1.79-.69.02-1.52.29-2.06.02-1.99-1.03-3.63-2.51-5.19-4.16-2.63-2.8-6.04-4.46-9.68-6.17-.55,3.28-.28,5.95,2,8.19-2.6,3.84-1.55,7.97-1.08,12,.22,1.86.73,3.67.03,5.52-.03.08-.03.19-.03.28-.1,2.28-.37,4.48-1.08,6.71-.72,2.26-.86,4.74-1,7.14-.25,4.36-2.14,8.32-2.86,12.51-.82,4.74-3.19,8.66-5.24,12.8-1.16,2.34-2.48,4.57-4.32,6.47-.43.44-.73,1-1.41,1.97,2.37.06,4.29.28,6.17.1,1.2-.12,1.84.3,2.19,1.22.39,1.03-.16,2.06-1.06,2.3-1.8.47-3.22,2.4-5.39,1.44-.15-.07-.39-.05-.55.01-3.67,1.42-7.57.78-11.35,1.24-2.1.25-4.28-.15-6.4.04-5.42.49-9.93-1.94-14.38-4.44-1.57-.88-2.91-2.32-4.03-3.76-.56-.73-.4-2.02-.56-3.05.25-.13.51-.27.76-.4ZM182.87,395.77c-3.29.74-6.31,1.25-9.22,2.12-3.13.93-3.09,1.07-2.42,4.31,1.05,5.1,2.35,10.17,3.07,15.32.46,3.3,1.39,6.29,3.01,9.13.05.08.05.18.1.26,1.79,3.16,3.19,6.54,6.05,9.02,1.8,1.56,3.81,2.43,6.09,2.18,2.1-.23,4.14-1.02,6.24-1.36,2.37-.38,4.14-1.6,5.59-3.4.99-1.23,2.04-2.43,2.87-3.76,4.95-7.9,7.81-16.51,8.66-25.79.16-1.8-.31-2.62-1.99-3.26-2.54-.97-5.19-1.36-7.86-1.43-.87,3.1-1.61,6.08-2.54,8.99-.99,3.09-4.42,5.45-7.51,5.33-5.14-.19-8.53-4.52-9.04-8.77-.34-2.76-.68-5.53-1.09-8.89ZM209.01,374.82c3.1-.06,3.6-.75,4.44-3.75.67-2.42-.5-4.57-.35-6.87.06-1-.88-1.26-1.79-1.39-3.48-.5-7.19,2.63-7.23,6.14,0,.73.25,1.54.02,2.19-.62,1.73.47,2.51,1.66,3.03.99.43,2.16.45,3.24.66Z"/>
      <path d="M269.75,522.08c-1.63-.6-3.43-1.13-5.11-1.92-2.02-.95-4.02-1.99-5.86-3.25-1.8-1.23-2.23-3.19-1.29-4.34.91-1.1,3.03-1.17,4.61-.12.86.57,1.66,1.22,2.56,1.71,2.32,1.26,4.69,1.88,7.47,1.86,6.05-.04,11.53-2.04,17.1-3.9,2.21-.74,4.45-1.37,6.69-2,1.49-.42,2.73.33,3.97.99.32.17.63.44.84.74,2.84,3.99,7.12,5.49,11.54,6.8,1.29.38,2.5.72,3.81.13.41-.18.91-.2,1.37-.22,3.51-.12,6.68-1.49,9.97-2.52,2.42-.75,4.42-1.85,6.08-3.69.25-.27.56-.59.89-.66.88-.18,2.03-.61,2.62-.23.57.37.85,1.63.8,2.47-.15,2.33-1.4,4.12-3.57,4.96-2.57,1-3.6,2.77-3.46,5.42.22,3.99-.83,7.76-2,11.53-.61,1.96-.85,4.04-1.51,5.98-1.27,3.76-2.19,7.66-4.12,11.17-.3.54-.69,1.11-1.19,1.45-2.54,1.73-5.07,3.5-7.72,5.06-5.05,2.97-10.38,3.83-16.14,2.11-8.54-2.55-15.48-7.37-20.96-14.29-3.11-3.93-5.04-8.47-5.78-13.47-.56-3.78-1.04-7.57-1.62-11.77ZM276.02,522.43c.1-.17-.02-.02-.08.15-.06.17-.1.36-.1.55-.11,6.06.97,11.72,4.1,17.14,3.62,6.28,8.85,10.6,15.05,13.71,5.99,3,12.23,3.1,18.08-.88,1.38-.94,3.07-1.62,4.08-2.86,1.45-1.78,2.65-3.87,3.51-6.01,1.4-3.45,2.54-7.01,3.58-10.59.93-3.19,1.9-6.43,1.29-9.91-1.93-.57-3.64.18-5.25.68-4.67,1.45-9.16,1.63-13.47-1.06-.31-.19-.74-.17-1.06-.34-2.17-1.21-4.52-2-6.26-4.04-1.58-1.85-3.73-2.99-6.47-1.62-1.82.9-3.85,1.39-5.82,1.96-3.63,1.05-7.28,2.03-11.18,3.11Z"/>
      <path d="M602.82,122.28c-3.33-.6-4.77-1.84-4.77-4.38-.01-5.74-.2-11.43,2.3-16.98,2.27-5.06,1.78-10.24-1.5-15.1-1.62-2.4-3.23-4.76-5.18-6.89-.85-.93-1.13-1.93-.85-3.09.32-1.33,1.74-1.98,2.82-1.2,5.46,3.96,9.31,9.1,10.71,15.78.74,3.54.28,7.13-1.34,10.37-1.25,2.51-1.67,5.13-1.98,7.81-.4,3.53-.33,7.06.1,10.59.12.94-.18,1.94-.31,3.08Z"/>
      <path d="M636.87,89.49c-.22,1.37-.41,2.75-.66,4.12-.56,3.04-.9,6.04-.11,9.14.41,1.6.25,3.34.39,5.02.09,1.13.35,2.32-1.16,2.74-1.42.39-3.13-.53-3.57-1.96-.3-.98-.6-1.97-.73-2.98-.51-4.05-1.18-8.06.59-12.09.81-1.84.53-3.87-.48-5.91-1.32-2.67-2.91-5.14-4.5-7.63-.95-1.47-.71-2.45.58-3.4,1.29-.95,2.21-.88,3.44.36,1.9,1.92,3.9,3.79,4.14,6.73.02.26.15.61.34.75,1.83,1.31,1.55,3.24,1.73,5.12Z"/>
      <path d="M569.13,110.21c.6.96,1.06,1.37,1.11,1.83.24,2.12.56,4.26.49,6.38-.1,2.59-.46,5.18-.91,7.74-.32,1.81-1,3.55-1.46,5.34-.54,2.09-1.4,3.95-2.75,5.7-2.11,2.74-2.64,6.12-3,9.5-.1,1.01-.27,2.03-.59,2.99-.28.84-.93,1.39-1.95,1.24-.99-.14-1.37-.77-1.6-1.68-1.03-4.12-.12-7.95,1.74-11.63,1.34-2.65,2.93-5.19,4.11-7.9,1.19-2.73,1.99-5.6,2.05-8.64.05-2.69-.18-5.45,1.09-7.97.4-.81.9-1.58,1.66-2.9Z"/>
      <path d="M636.75,129.36c-.15,2.14-.46,4.28-.42,6.42.03,1.65.52,3.28.77,4.92.81,5.34-.68,10.16-3.44,14.63-.96,1.56-2.22,2.96-3.49,4.29-.4.42-1.27.39-1.92.56-.09-.69-.43-1.49-.21-2.06.84-2.16,1.86-4.25,2.82-6.36,1.53-3.39,2.38-6.88,1.28-10.56-1.05-3.51-.19-7.02-.21-10.53,0-1.18.23-2.37.28-3.55.06-1.45.32-2.88,1.56-3.72.59-.4,1.63-.56,2.28-.32.45.16.82,1.17.85,1.82.05,1.48-.13,2.98-.21,4.46.03,0,.05,0,.08,0Z"/>
      <path d="M497.92,96.36c-2.3-.5-2.52-2.24-2.77-3.71-.51-3.03-.83-6.1-1.12-9.17-.07-.8.09-1.72.43-2.44,1.37-2.85,2.79-5.68,4.32-8.44,1.48-2.67,3.15-5.24,4.71-7.88,1.32-2.23,3.66-3.23,6.88-2.78.36,1.74-.34,3.17-1.76,3.99-1.57.9-2.38,2.33-3.28,3.71-2.5,3.83-5.06,7.62-6.67,11.95-.5,1.36-.62,2.58-.24,4.05.9,3.5.71,7.02-.5,10.72Z"/>
      <path d="M541.32,181.79c2.88-.81,5.87-1.84,8.95-2.46,4.75-.96,9.57-1.54,14.32-2.48,2.17-.43,4.26-1.3,6.37-2.03,1.23-.43,2.41-1,3.62-1.48.43-.17.88-.35,1.33-.39,1.36-.14,3.04.81,3.22,1.75.16.82-.95,2.15-2.28,2.53-2.15.62-4.4.93-6.46,1.75-4.46,1.79-9.32,1.61-13.82,3.11-1.24.41-2.49.84-3.76,1.09-3.35.65-6.73,1.07-10.16.67-.98-.11-1.54-.59-1.33-2.05Z"/>
      <path d="M541.94,82.36c1.55-3.01,4.23-3.9,7.07-2.72,4.19,1.74,7.76,4.34,10.82,7.64,2.26,2.44,4.44,4.96,6.48,7.59.83,1.06,1.27,2.46,1.7,3.77.16.49-.04,1.51-.38,1.68-.54.26-1.55.28-1.97-.07-.99-.81-1.76-1.89-2.59-2.89-.23-.28-.29-.72-.55-.96-3.37-3.29-6.68-6.63-10.17-9.79-1.42-1.28-3.17-2.18-5.15-2.6-1.77-.37-3.48-1.08-5.25-1.65Z"/>
      <path d="M601.72,140.54c.73,2.28-.47,4.13-1.45,6-1.8,3.45-3.69,6.83-4.32,10.79-.76,4.77-3.01,8.77-6.92,11.73-.3.22-.54.67-.84.7-.68.06-1.39-.07-2.08-.13.11-.67-.01-1.6.38-1.95,1.46-1.28,2.4-2.83,3.01-4.63.15-.44.37-.87.42-1.32.62-5.59,2.82-10.54,6.03-15.11,1.17-1.66,2.07-3.51,3.14-5.24.59-.95,1.39-1.5,2.63-.84Z"/>
      <path d="M528.72,102.84c2.24,1.25,4.39,2.48,6.56,3.66,3.31,1.79,4.61,4.75,4.66,8.29.05,3.35-.14,6.7-.22,10.04,0,.37.08.86-.11,1.09-.44.52-.98,1.12-1.59,1.3-.75.23-1.5-.15-1.64-1.08-.33-2.19-.66-4.38-.93-6.58-.14-1.11-.01-2.26-.24-3.35-.56-2.64-1.05-5.32-4.08-6.53-1.08-.43-1.93-1.45-2.85-2.25-2.41-2.08-2.27-3.09.45-4.6Z"/>
      <path d="M554.7,44.09c1.02-.1,2.03-.25,3.06-.3.91-.05,1.85.26,1.88,1.24.02.52-.65,1.31-1.2,1.55-1.43.62-2.95,1.31-4.47,1.43-4.84.38-9.63.94-14.33,2.22-2.06.56-3.82,1.46-5.21,3.05-.58.66-1.19,1.37-2.09.64-.76-.62-1.24-1.52-.58-2.47,1.86-2.69,3.67-5.36,7.42-5.74,3.79-.38,7.55-1.09,11.33-1.59,1.38-.18,2.79-.16,4.19-.24,0,.07.01.14.02.2Z"/>
      <path d="M531.18,168c-1.98-.23-3.67-.29-5.29-.64-2.01-.43-2.77-1.44-2.4-2.75.35-1.24,1.75-1.9,3.39-1.66,1.47.22,2.96.59,4.42.53,2.21-.09,4.41-.52,6.61-.78,3.6-.41,7.21-.8,10.81-1.18.89-.1,1.76.03,2.04,1.02.27.97-.37,1.54-1.15,2-1.61.95-3.21,1.65-5.21,1.7-2.77.08-5.52.72-8.27,1.1-1.74.24-3.49.46-4.95.65Z"/>
      <path d="M512.28,143.72c-2.12.33-4.1-.08-5.64-1.69-.48-.5-.87-1.26-.94-1.93-.13-1.26,1.19-2.31,2.21-1.67,3.33,2.08,6.93.62,10.37.98,1.44.15,2.95-.35,4.44-.53,1.85-.22,3.35-.92,4.42-2.58.74-1.16,1.58-2.31,3.11-2.67,1.57-.37,2.24.06,1.97,1.58-.14.79-.44,1.66-.93,2.28-2.64,3.29-6.09,5.16-10.32,5.53-2.88.25-5.77.47-8.69.7Z"/>
      <path d="M486.17,109.9c1.23,1.28.95,2.45.57,3.45-1.22,3.17.25,6.25.19,9.38-.01.58.48,1.2.83,1.75,1.95,3.09,4.1,5.96,7.66,7.39.33.13.58.45.89.7-.29,1.6-1.3,1.99-2.66,1.74-.63-.12-1.26-.37-1.84-.66-4.48-2.25-8.07-5.48-8.98-10.55-.44-2.46.35-5.17.69-7.75.12-.91.47-1.81.88-2.64.46-.94,1.11-1.78,1.76-2.81Z"/>
      <path d="M491.2,159.93c-.24-.36-.47-.54-.47-.73,0-.17.24-.34.38-.51.1.12.29.24.29.37,0,.22-.09.44-.19.87Z"/>
    </g>
  </g>
</svg>